<?xml version="1.0" encoding="utf-8" standalone="no"?>
<!DOCTYPE svg PUBLIC "-//W3C//DTD SVG 1.1//EN"
  "http://www.w3.org/Graphics/SVG/1.1/DTD/svg11.dtd">
<!-- Created with matplotlib (https://matplotlib.org/) -->
<svg height="345.6pt" version="1.1" viewBox="0 0 460.8 345.6" width="460.8pt" xmlns="http://www.w3.org/2000/svg" xmlns:xlink="http://www.w3.org/1999/xlink">
 <defs>
  <style type="text/css">
*{stroke-linecap:butt;stroke-linejoin:round;}
  </style>
 </defs>
 <g id="figure_1">
  <g id="patch_1">
   <path d="M 0 345.6 
L 460.8 345.6 
L 460.8 0 
L 0 0 
z
" style="fill:#ffffff;"/>
  </g>
  <g id="axes_1">
   <g id="patch_2">
    <path d="M 57.6 307.584 
L 414.72 307.584 
L 414.72 41.472 
L 57.6 41.472 
z
" style="fill:#ffffff;"/>
   </g>
   <g id="matplotlib.axis_1">
    <g id="xtick_1">
     <g id="line2d_1">
      <path clip-path="url(#p3ae30c055a)" d="M 73.832727 307.584 
L 73.832727 41.472 
" style="fill:none;stroke:#b0b0b0;stroke-linecap:square;stroke-width:0.8;"/>
     </g>
     <g id="line2d_2">
      <defs>
       <path d="M 0 0 
L 0 3.5 
" id="mf8be0ffd24" style="stroke:#000000;stroke-width:0.8;"/>
      </defs>
      <g>
       <use style="stroke:#000000;stroke-width:0.8;" x="73.832727" xlink:href="#mf8be0ffd24" y="307.584"/>
      </g>
     </g>
     <g id="text_1">
      <!-- 0 -->
      <defs>
       <path d="M 31.78125 66.40625 
Q 24.171875 66.40625 20.328125 58.90625 
Q 16.5 51.421875 16.5 36.375 
Q 16.5 21.390625 20.328125 13.890625 
Q 24.171875 6.390625 31.78125 6.390625 
Q 39.453125 6.390625 43.28125 13.890625 
Q 47.125 21.390625 47.125 36.375 
Q 47.125 51.421875 43.28125 58.90625 
Q 39.453125 66.40625 31.78125 66.40625 
z
M 31.78125 74.21875 
Q 44.046875 74.21875 50.515625 64.515625 
Q 56.984375 54.828125 56.984375 36.375 
Q 56.984375 17.96875 50.515625 8.265625 
Q 44.046875 -1.421875 31.78125 -1.421875 
Q 19.53125 -1.421875 13.0625 8.265625 
Q 6.59375 17.96875 6.59375 36.375 
Q 6.59375 54.828125 13.0625 64.515625 
Q 19.53125 74.21875 31.78125 74.21875 
z
" id="DejaVuSans-48"/>
      </defs>
      <g transform="translate(70.651477 322.182437)scale(0.1 -0.1)">
       <use xlink:href="#DejaVuSans-48"/>
      </g>
     </g>
    </g>
    <g id="xtick_2">
     <g id="line2d_3">
      <path clip-path="url(#p3ae30c055a)" d="M 114.516254 307.584 
L 114.516254 41.472 
" style="fill:none;stroke:#b0b0b0;stroke-linecap:square;stroke-width:0.8;"/>
     </g>
     <g id="line2d_4">
      <g>
       <use style="stroke:#000000;stroke-width:0.8;" x="114.516254" xlink:href="#mf8be0ffd24" y="307.584"/>
      </g>
     </g>
     <g id="text_2">
      <!-- 50 -->
      <defs>
       <path d="M 10.796875 72.90625 
L 49.515625 72.90625 
L 49.515625 64.59375 
L 19.828125 64.59375 
L 19.828125 46.734375 
Q 21.96875 47.46875 24.109375 47.828125 
Q 26.265625 48.1875 28.421875 48.1875 
Q 40.625 48.1875 47.75 41.5 
Q 54.890625 34.8125 54.890625 23.390625 
Q 54.890625 11.625 47.5625 5.09375 
Q 40.234375 -1.421875 26.90625 -1.421875 
Q 22.3125 -1.421875 17.546875 -0.640625 
Q 12.796875 0.140625 7.71875 1.703125 
L 7.71875 11.625 
Q 12.109375 9.234375 16.796875 8.0625 
Q 21.484375 6.890625 26.703125 6.890625 
Q 35.15625 6.890625 40.078125 11.328125 
Q 45.015625 15.765625 45.015625 23.390625 
Q 45.015625 31 40.078125 35.4375 
Q 35.15625 39.890625 26.703125 39.890625 
Q 22.75 39.890625 18.8125 39.015625 
Q 14.890625 38.140625 10.796875 36.28125 
z
" id="DejaVuSans-53"/>
      </defs>
      <g transform="translate(108.153754 322.182437)scale(0.1 -0.1)">
       <use xlink:href="#DejaVuSans-53"/>
       <use x="63.623047" xlink:href="#DejaVuSans-48"/>
      </g>
     </g>
    </g>
    <g id="xtick_3">
     <g id="line2d_5">
      <path clip-path="url(#p3ae30c055a)" d="M 155.199781 307.584 
L 155.199781 41.472 
" style="fill:none;stroke:#b0b0b0;stroke-linecap:square;stroke-width:0.8;"/>
     </g>
     <g id="line2d_6">
      <g>
       <use style="stroke:#000000;stroke-width:0.8;" x="155.199781" xlink:href="#mf8be0ffd24" y="307.584"/>
      </g>
     </g>
     <g id="text_3">
      <!-- 100 -->
      <defs>
       <path d="M 12.40625 8.296875 
L 28.515625 8.296875 
L 28.515625 63.921875 
L 10.984375 60.40625 
L 10.984375 69.390625 
L 28.421875 72.90625 
L 38.28125 72.90625 
L 38.28125 8.296875 
L 54.390625 8.296875 
L 54.390625 0 
L 12.40625 0 
z
" id="DejaVuSans-49"/>
      </defs>
      <g transform="translate(145.656031 322.182437)scale(0.1 -0.1)">
       <use xlink:href="#DejaVuSans-49"/>
       <use x="63.623047" xlink:href="#DejaVuSans-48"/>
       <use x="127.246094" xlink:href="#DejaVuSans-48"/>
      </g>
     </g>
    </g>
    <g id="xtick_4">
     <g id="line2d_7">
      <path clip-path="url(#p3ae30c055a)" d="M 195.883308 307.584 
L 195.883308 41.472 
" style="fill:none;stroke:#b0b0b0;stroke-linecap:square;stroke-width:0.8;"/>
     </g>
     <g id="line2d_8">
      <g>
       <use style="stroke:#000000;stroke-width:0.8;" x="195.883308" xlink:href="#mf8be0ffd24" y="307.584"/>
      </g>
     </g>
     <g id="text_4">
      <!-- 150 -->
      <g transform="translate(186.339558 322.182437)scale(0.1 -0.1)">
       <use xlink:href="#DejaVuSans-49"/>
       <use x="63.623047" xlink:href="#DejaVuSans-53"/>
       <use x="127.246094" xlink:href="#DejaVuSans-48"/>
      </g>
     </g>
    </g>
    <g id="xtick_5">
     <g id="line2d_9">
      <path clip-path="url(#p3ae30c055a)" d="M 236.566835 307.584 
L 236.566835 41.472 
" style="fill:none;stroke:#b0b0b0;stroke-linecap:square;stroke-width:0.8;"/>
     </g>
     <g id="line2d_10">
      <g>
       <use style="stroke:#000000;stroke-width:0.8;" x="236.566835" xlink:href="#mf8be0ffd24" y="307.584"/>
      </g>
     </g>
     <g id="text_5">
      <!-- 200 -->
      <defs>
       <path d="M 19.1875 8.296875 
L 53.609375 8.296875 
L 53.609375 0 
L 7.328125 0 
L 7.328125 8.296875 
Q 12.9375 14.109375 22.625 23.890625 
Q 32.328125 33.6875 34.8125 36.53125 
Q 39.546875 41.84375 41.421875 45.53125 
Q 43.3125 49.21875 43.3125 52.78125 
Q 43.3125 58.59375 39.234375 62.25 
Q 35.15625 65.921875 28.609375 65.921875 
Q 23.96875 65.921875 18.8125 64.3125 
Q 13.671875 62.703125 7.8125 59.421875 
L 7.8125 69.390625 
Q 13.765625 71.78125 18.9375 73 
Q 24.125 74.21875 28.421875 74.21875 
Q 39.75 74.21875 46.484375 68.546875 
Q 53.21875 62.890625 53.21875 53.421875 
Q 53.21875 48.921875 51.53125 44.890625 
Q 49.859375 40.875 45.40625 35.40625 
Q 44.1875 33.984375 37.640625 27.21875 
Q 31.109375 20.453125 19.1875 8.296875 
z
" id="DejaVuSans-50"/>
      </defs>
      <g transform="translate(227.023085 322.182437)scale(0.1 -0.1)">
       <use xlink:href="#DejaVuSans-50"/>
       <use x="63.623047" xlink:href="#DejaVuSans-48"/>
       <use x="127.246094" xlink:href="#DejaVuSans-48"/>
      </g>
     </g>
    </g>
    <g id="xtick_6">
     <g id="line2d_11">
      <path clip-path="url(#p3ae30c055a)" d="M 277.250362 307.584 
L 277.250362 41.472 
" style="fill:none;stroke:#b0b0b0;stroke-linecap:square;stroke-width:0.8;"/>
     </g>
     <g id="line2d_12">
      <g>
       <use style="stroke:#000000;stroke-width:0.8;" x="277.250362" xlink:href="#mf8be0ffd24" y="307.584"/>
      </g>
     </g>
     <g id="text_6">
      <!-- 250 -->
      <g transform="translate(267.706612 322.182437)scale(0.1 -0.1)">
       <use xlink:href="#DejaVuSans-50"/>
       <use x="63.623047" xlink:href="#DejaVuSans-53"/>
       <use x="127.246094" xlink:href="#DejaVuSans-48"/>
      </g>
     </g>
    </g>
    <g id="xtick_7">
     <g id="line2d_13">
      <path clip-path="url(#p3ae30c055a)" d="M 317.933889 307.584 
L 317.933889 41.472 
" style="fill:none;stroke:#b0b0b0;stroke-linecap:square;stroke-width:0.8;"/>
     </g>
     <g id="line2d_14">
      <g>
       <use style="stroke:#000000;stroke-width:0.8;" x="317.933889" xlink:href="#mf8be0ffd24" y="307.584"/>
      </g>
     </g>
     <g id="text_7">
      <!-- 300 -->
      <defs>
       <path d="M 40.578125 39.3125 
Q 47.65625 37.796875 51.625 33 
Q 55.609375 28.21875 55.609375 21.1875 
Q 55.609375 10.40625 48.1875 4.484375 
Q 40.765625 -1.421875 27.09375 -1.421875 
Q 22.515625 -1.421875 17.65625 -0.515625 
Q 12.796875 0.390625 7.625 2.203125 
L 7.625 11.71875 
Q 11.71875 9.328125 16.59375 8.109375 
Q 21.484375 6.890625 26.8125 6.890625 
Q 36.078125 6.890625 40.9375 10.546875 
Q 45.796875 14.203125 45.796875 21.1875 
Q 45.796875 27.640625 41.28125 31.265625 
Q 36.765625 34.90625 28.71875 34.90625 
L 20.21875 34.90625 
L 20.21875 43.015625 
L 29.109375 43.015625 
Q 36.375 43.015625 40.234375 45.921875 
Q 44.09375 48.828125 44.09375 54.296875 
Q 44.09375 59.90625 40.109375 62.90625 
Q 36.140625 65.921875 28.71875 65.921875 
Q 24.65625 65.921875 20.015625 65.03125 
Q 15.375 64.15625 9.8125 62.3125 
L 9.8125 71.09375 
Q 15.4375 72.65625 20.34375 73.4375 
Q 25.25 74.21875 29.59375 74.21875 
Q 40.828125 74.21875 47.359375 69.109375 
Q 53.90625 64.015625 53.90625 55.328125 
Q 53.90625 49.265625 50.4375 45.09375 
Q 46.96875 40.921875 40.578125 39.3125 
z
" id="DejaVuSans-51"/>
      </defs>
      <g transform="translate(308.390139 322.182437)scale(0.1 -0.1)">
       <use xlink:href="#DejaVuSans-51"/>
       <use x="63.623047" xlink:href="#DejaVuSans-48"/>
       <use x="127.246094" xlink:href="#DejaVuSans-48"/>
      </g>
     </g>
    </g>
    <g id="xtick_8">
     <g id="line2d_15">
      <path clip-path="url(#p3ae30c055a)" d="M 358.617416 307.584 
L 358.617416 41.472 
" style="fill:none;stroke:#b0b0b0;stroke-linecap:square;stroke-width:0.8;"/>
     </g>
     <g id="line2d_16">
      <g>
       <use style="stroke:#000000;stroke-width:0.8;" x="358.617416" xlink:href="#mf8be0ffd24" y="307.584"/>
      </g>
     </g>
     <g id="text_8">
      <!-- 350 -->
      <g transform="translate(349.073666 322.182437)scale(0.1 -0.1)">
       <use xlink:href="#DejaVuSans-51"/>
       <use x="63.623047" xlink:href="#DejaVuSans-53"/>
       <use x="127.246094" xlink:href="#DejaVuSans-48"/>
      </g>
     </g>
    </g>
    <g id="xtick_9">
     <g id="line2d_17">
      <path clip-path="url(#p3ae30c055a)" d="M 399.300943 307.584 
L 399.300943 41.472 
" style="fill:none;stroke:#b0b0b0;stroke-linecap:square;stroke-width:0.8;"/>
     </g>
     <g id="line2d_18">
      <g>
       <use style="stroke:#000000;stroke-width:0.8;" x="399.300943" xlink:href="#mf8be0ffd24" y="307.584"/>
      </g>
     </g>
     <g id="text_9">
      <!-- 400 -->
      <defs>
       <path d="M 37.796875 64.3125 
L 12.890625 25.390625 
L 37.796875 25.390625 
z
M 35.203125 72.90625 
L 47.609375 72.90625 
L 47.609375 25.390625 
L 58.015625 25.390625 
L 58.015625 17.1875 
L 47.609375 17.1875 
L 47.609375 0 
L 37.796875 0 
L 37.796875 17.1875 
L 4.890625 17.1875 
L 4.890625 26.703125 
z
" id="DejaVuSans-52"/>
      </defs>
      <g transform="translate(389.757193 322.182437)scale(0.1 -0.1)">
       <use xlink:href="#DejaVuSans-52"/>
       <use x="63.623047" xlink:href="#DejaVuSans-48"/>
       <use x="127.246094" xlink:href="#DejaVuSans-48"/>
      </g>
     </g>
    </g>
    <g id="text_10">
     <!-- Generations -->
     <defs>
      <path d="M 59.515625 10.40625 
L 59.515625 29.984375 
L 43.40625 29.984375 
L 43.40625 38.09375 
L 69.28125 38.09375 
L 69.28125 6.78125 
Q 63.578125 2.734375 56.6875 0.65625 
Q 49.8125 -1.421875 42 -1.421875 
Q 24.90625 -1.421875 15.25 8.5625 
Q 5.609375 18.5625 5.609375 36.375 
Q 5.609375 54.25 15.25 64.234375 
Q 24.90625 74.21875 42 74.21875 
Q 49.125 74.21875 55.546875 72.453125 
Q 61.96875 70.703125 67.390625 67.28125 
L 67.390625 56.78125 
Q 61.921875 61.421875 55.765625 63.765625 
Q 49.609375 66.109375 42.828125 66.109375 
Q 29.4375 66.109375 22.71875 58.640625 
Q 16.015625 51.171875 16.015625 36.375 
Q 16.015625 21.625 22.71875 14.15625 
Q 29.4375 6.6875 42.828125 6.6875 
Q 48.046875 6.6875 52.140625 7.59375 
Q 56.25 8.5 59.515625 10.40625 
z
" id="DejaVuSans-71"/>
      <path d="M 56.203125 29.59375 
L 56.203125 25.203125 
L 14.890625 25.203125 
Q 15.484375 15.921875 20.484375 11.0625 
Q 25.484375 6.203125 34.421875 6.203125 
Q 39.59375 6.203125 44.453125 7.46875 
Q 49.3125 8.734375 54.109375 11.28125 
L 54.109375 2.78125 
Q 49.265625 0.734375 44.1875 -0.34375 
Q 39.109375 -1.421875 33.890625 -1.421875 
Q 20.796875 -1.421875 13.15625 6.1875 
Q 5.515625 13.8125 5.515625 26.8125 
Q 5.515625 40.234375 12.765625 48.109375 
Q 20.015625 56 32.328125 56 
Q 43.359375 56 49.78125 48.890625 
Q 56.203125 41.796875 56.203125 29.59375 
z
M 47.21875 32.234375 
Q 47.125 39.59375 43.09375 43.984375 
Q 39.0625 48.390625 32.421875 48.390625 
Q 24.90625 48.390625 20.390625 44.140625 
Q 15.875 39.890625 15.1875 32.171875 
z
" id="DejaVuSans-101"/>
      <path d="M 54.890625 33.015625 
L 54.890625 0 
L 45.90625 0 
L 45.90625 32.71875 
Q 45.90625 40.484375 42.875 44.328125 
Q 39.84375 48.1875 33.796875 48.1875 
Q 26.515625 48.1875 22.3125 43.546875 
Q 18.109375 38.921875 18.109375 30.90625 
L 18.109375 0 
L 9.078125 0 
L 9.078125 54.6875 
L 18.109375 54.6875 
L 18.109375 46.1875 
Q 21.34375 51.125 25.703125 53.5625 
Q 30.078125 56 35.796875 56 
Q 45.21875 56 50.046875 50.171875 
Q 54.890625 44.34375 54.890625 33.015625 
z
" id="DejaVuSans-110"/>
      <path d="M 41.109375 46.296875 
Q 39.59375 47.171875 37.8125 47.578125 
Q 36.03125 48 33.890625 48 
Q 26.265625 48 22.1875 43.046875 
Q 18.109375 38.09375 18.109375 28.8125 
L 18.109375 0 
L 9.078125 0 
L 9.078125 54.6875 
L 18.109375 54.6875 
L 18.109375 46.1875 
Q 20.953125 51.171875 25.484375 53.578125 
Q 30.03125 56 36.53125 56 
Q 37.453125 56 38.578125 55.875 
Q 39.703125 55.765625 41.0625 55.515625 
z
" id="DejaVuSans-114"/>
      <path d="M 34.28125 27.484375 
Q 23.390625 27.484375 19.1875 25 
Q 14.984375 22.515625 14.984375 16.5 
Q 14.984375 11.71875 18.140625 8.90625 
Q 21.296875 6.109375 26.703125 6.109375 
Q 34.1875 6.109375 38.703125 11.40625 
Q 43.21875 16.703125 43.21875 25.484375 
L 43.21875 27.484375 
z
M 52.203125 31.203125 
L 52.203125 0 
L 43.21875 0 
L 43.21875 8.296875 
Q 40.140625 3.328125 35.546875 0.953125 
Q 30.953125 -1.421875 24.3125 -1.421875 
Q 15.921875 -1.421875 10.953125 3.296875 
Q 6 8.015625 6 15.921875 
Q 6 25.140625 12.171875 29.828125 
Q 18.359375 34.515625 30.609375 34.515625 
L 43.21875 34.515625 
L 43.21875 35.40625 
Q 43.21875 41.609375 39.140625 45 
Q 35.0625 48.390625 27.6875 48.390625 
Q 23 48.390625 18.546875 47.265625 
Q 14.109375 46.140625 10.015625 43.890625 
L 10.015625 52.203125 
Q 14.9375 54.109375 19.578125 55.046875 
Q 24.21875 56 28.609375 56 
Q 40.484375 56 46.34375 49.84375 
Q 52.203125 43.703125 52.203125 31.203125 
z
" id="DejaVuSans-97"/>
      <path d="M 18.3125 70.21875 
L 18.3125 54.6875 
L 36.8125 54.6875 
L 36.8125 47.703125 
L 18.3125 47.703125 
L 18.3125 18.015625 
Q 18.3125 11.328125 20.140625 9.421875 
Q 21.96875 7.515625 27.59375 7.515625 
L 36.8125 7.515625 
L 36.8125 0 
L 27.59375 0 
Q 17.1875 0 13.234375 3.875 
Q 9.28125 7.765625 9.28125 18.015625 
L 9.28125 47.703125 
L 2.6875 47.703125 
L 2.6875 54.6875 
L 9.28125 54.6875 
L 9.28125 70.21875 
z
" id="DejaVuSans-116"/>
      <path d="M 9.421875 54.6875 
L 18.40625 54.6875 
L 18.40625 0 
L 9.421875 0 
z
M 9.421875 75.984375 
L 18.40625 75.984375 
L 18.40625 64.59375 
L 9.421875 64.59375 
z
" id="DejaVuSans-105"/>
      <path d="M 30.609375 48.390625 
Q 23.390625 48.390625 19.1875 42.75 
Q 14.984375 37.109375 14.984375 27.296875 
Q 14.984375 17.484375 19.15625 11.84375 
Q 23.34375 6.203125 30.609375 6.203125 
Q 37.796875 6.203125 41.984375 11.859375 
Q 46.1875 17.53125 46.1875 27.296875 
Q 46.1875 37.015625 41.984375 42.703125 
Q 37.796875 48.390625 30.609375 48.390625 
z
M 30.609375 56 
Q 42.328125 56 49.015625 48.375 
Q 55.71875 40.765625 55.71875 27.296875 
Q 55.71875 13.875 49.015625 6.21875 
Q 42.328125 -1.421875 30.609375 -1.421875 
Q 18.84375 -1.421875 12.171875 6.21875 
Q 5.515625 13.875 5.515625 27.296875 
Q 5.515625 40.765625 12.171875 48.375 
Q 18.84375 56 30.609375 56 
z
" id="DejaVuSans-111"/>
      <path d="M 44.28125 53.078125 
L 44.28125 44.578125 
Q 40.484375 46.53125 36.375 47.5 
Q 32.28125 48.484375 27.875 48.484375 
Q 21.1875 48.484375 17.84375 46.4375 
Q 14.5 44.390625 14.5 40.28125 
Q 14.5 37.15625 16.890625 35.375 
Q 19.28125 33.59375 26.515625 31.984375 
L 29.59375 31.296875 
Q 39.15625 29.25 43.1875 25.515625 
Q 47.21875 21.78125 47.21875 15.09375 
Q 47.21875 7.46875 41.1875 3.015625 
Q 35.15625 -1.421875 24.609375 -1.421875 
Q 20.21875 -1.421875 15.453125 -0.5625 
Q 10.6875 0.296875 5.421875 2 
L 5.421875 11.28125 
Q 10.40625 8.6875 15.234375 7.390625 
Q 20.0625 6.109375 24.8125 6.109375 
Q 31.15625 6.109375 34.5625 8.28125 
Q 37.984375 10.453125 37.984375 14.40625 
Q 37.984375 18.0625 35.515625 20.015625 
Q 33.0625 21.96875 24.703125 23.78125 
L 21.578125 24.515625 
Q 13.234375 26.265625 9.515625 29.90625 
Q 5.8125 33.546875 5.8125 39.890625 
Q 5.8125 47.609375 11.28125 51.796875 
Q 16.75 56 26.8125 56 
Q 31.78125 56 36.171875 55.265625 
Q 40.578125 54.546875 44.28125 53.078125 
z
" id="DejaVuSans-115"/>
     </defs>
     <g transform="translate(205.662344 335.860562)scale(0.1 -0.1)">
      <use xlink:href="#DejaVuSans-71"/>
      <use x="77.490234" xlink:href="#DejaVuSans-101"/>
      <use x="139.013672" xlink:href="#DejaVuSans-110"/>
      <use x="202.392578" xlink:href="#DejaVuSans-101"/>
      <use x="263.916016" xlink:href="#DejaVuSans-114"/>
      <use x="305.029297" xlink:href="#DejaVuSans-97"/>
      <use x="366.308594" xlink:href="#DejaVuSans-116"/>
      <use x="405.517578" xlink:href="#DejaVuSans-105"/>
      <use x="433.300781" xlink:href="#DejaVuSans-111"/>
      <use x="494.482422" xlink:href="#DejaVuSans-110"/>
      <use x="557.861328" xlink:href="#DejaVuSans-115"/>
     </g>
    </g>
   </g>
   <g id="matplotlib.axis_2">
    <g id="ytick_1">
     <g id="line2d_19">
      <path clip-path="url(#p3ae30c055a)" d="M 57.6 292.969758 
L 414.72 292.969758 
" style="fill:none;stroke:#b0b0b0;stroke-linecap:square;stroke-width:0.8;"/>
     </g>
     <g id="line2d_20">
      <defs>
       <path d="M 0 0 
L -3.5 0 
" id="md66003aa9b" style="stroke:#000000;stroke-width:0.8;"/>
      </defs>
      <g>
       <use style="stroke:#000000;stroke-width:0.8;" x="57.6" xlink:href="#md66003aa9b" y="292.969758"/>
      </g>
     </g>
     <g id="text_11">
      <!-- 0 -->
      <g transform="translate(44.2375 296.768976)scale(0.1 -0.1)">
       <use xlink:href="#DejaVuSans-48"/>
      </g>
     </g>
    </g>
    <g id="ytick_2">
     <g id="line2d_21">
      <path clip-path="url(#p3ae30c055a)" d="M 57.6 257.86789 
L 414.72 257.86789 
" style="fill:none;stroke:#b0b0b0;stroke-linecap:square;stroke-width:0.8;"/>
     </g>
     <g id="line2d_22">
      <g>
       <use style="stroke:#000000;stroke-width:0.8;" x="57.6" xlink:href="#md66003aa9b" y="257.86789"/>
      </g>
     </g>
     <g id="text_12">
      <!-- 250 -->
      <g transform="translate(31.5125 261.667109)scale(0.1 -0.1)">
       <use xlink:href="#DejaVuSans-50"/>
       <use x="63.623047" xlink:href="#DejaVuSans-53"/>
       <use x="127.246094" xlink:href="#DejaVuSans-48"/>
      </g>
     </g>
    </g>
    <g id="ytick_3">
     <g id="line2d_23">
      <path clip-path="url(#p3ae30c055a)" d="M 57.6 222.766022 
L 414.72 222.766022 
" style="fill:none;stroke:#b0b0b0;stroke-linecap:square;stroke-width:0.8;"/>
     </g>
     <g id="line2d_24">
      <g>
       <use style="stroke:#000000;stroke-width:0.8;" x="57.6" xlink:href="#md66003aa9b" y="222.766022"/>
      </g>
     </g>
     <g id="text_13">
      <!-- 500 -->
      <g transform="translate(31.5125 226.565241)scale(0.1 -0.1)">
       <use xlink:href="#DejaVuSans-53"/>
       <use x="63.623047" xlink:href="#DejaVuSans-48"/>
       <use x="127.246094" xlink:href="#DejaVuSans-48"/>
      </g>
     </g>
    </g>
    <g id="ytick_4">
     <g id="line2d_25">
      <path clip-path="url(#p3ae30c055a)" d="M 57.6 187.664155 
L 414.72 187.664155 
" style="fill:none;stroke:#b0b0b0;stroke-linecap:square;stroke-width:0.8;"/>
     </g>
     <g id="line2d_26">
      <g>
       <use style="stroke:#000000;stroke-width:0.8;" x="57.6" xlink:href="#md66003aa9b" y="187.664155"/>
      </g>
     </g>
     <g id="text_14">
      <!-- 750 -->
      <defs>
       <path d="M 8.203125 72.90625 
L 55.078125 72.90625 
L 55.078125 68.703125 
L 28.609375 0 
L 18.3125 0 
L 43.21875 64.59375 
L 8.203125 64.59375 
z
" id="DejaVuSans-55"/>
      </defs>
      <g transform="translate(31.5125 191.463374)scale(0.1 -0.1)">
       <use xlink:href="#DejaVuSans-55"/>
       <use x="63.623047" xlink:href="#DejaVuSans-53"/>
       <use x="127.246094" xlink:href="#DejaVuSans-48"/>
      </g>
     </g>
    </g>
    <g id="ytick_5">
     <g id="line2d_27">
      <path clip-path="url(#p3ae30c055a)" d="M 57.6 152.562287 
L 414.72 152.562287 
" style="fill:none;stroke:#b0b0b0;stroke-linecap:square;stroke-width:0.8;"/>
     </g>
     <g id="line2d_28">
      <g>
       <use style="stroke:#000000;stroke-width:0.8;" x="57.6" xlink:href="#md66003aa9b" y="152.562287"/>
      </g>
     </g>
     <g id="text_15">
      <!-- 1000 -->
      <g transform="translate(25.15 156.361506)scale(0.1 -0.1)">
       <use xlink:href="#DejaVuSans-49"/>
       <use x="63.623047" xlink:href="#DejaVuSans-48"/>
       <use x="127.246094" xlink:href="#DejaVuSans-48"/>
       <use x="190.869141" xlink:href="#DejaVuSans-48"/>
      </g>
     </g>
    </g>
    <g id="ytick_6">
     <g id="line2d_29">
      <path clip-path="url(#p3ae30c055a)" d="M 57.6 117.460419 
L 414.72 117.460419 
" style="fill:none;stroke:#b0b0b0;stroke-linecap:square;stroke-width:0.8;"/>
     </g>
     <g id="line2d_30">
      <g>
       <use style="stroke:#000000;stroke-width:0.8;" x="57.6" xlink:href="#md66003aa9b" y="117.460419"/>
      </g>
     </g>
     <g id="text_16">
      <!-- 1250 -->
      <g transform="translate(25.15 121.259638)scale(0.1 -0.1)">
       <use xlink:href="#DejaVuSans-49"/>
       <use x="63.623047" xlink:href="#DejaVuSans-50"/>
       <use x="127.246094" xlink:href="#DejaVuSans-53"/>
       <use x="190.869141" xlink:href="#DejaVuSans-48"/>
      </g>
     </g>
    </g>
    <g id="ytick_7">
     <g id="line2d_31">
      <path clip-path="url(#p3ae30c055a)" d="M 57.6 82.358552 
L 414.72 82.358552 
" style="fill:none;stroke:#b0b0b0;stroke-linecap:square;stroke-width:0.8;"/>
     </g>
     <g id="line2d_32">
      <g>
       <use style="stroke:#000000;stroke-width:0.8;" x="57.6" xlink:href="#md66003aa9b" y="82.358552"/>
      </g>
     </g>
     <g id="text_17">
      <!-- 1500 -->
      <g transform="translate(25.15 86.157771)scale(0.1 -0.1)">
       <use xlink:href="#DejaVuSans-49"/>
       <use x="63.623047" xlink:href="#DejaVuSans-53"/>
       <use x="127.246094" xlink:href="#DejaVuSans-48"/>
       <use x="190.869141" xlink:href="#DejaVuSans-48"/>
      </g>
     </g>
    </g>
    <g id="ytick_8">
     <g id="line2d_33">
      <path clip-path="url(#p3ae30c055a)" d="M 57.6 47.256684 
L 414.72 47.256684 
" style="fill:none;stroke:#b0b0b0;stroke-linecap:square;stroke-width:0.8;"/>
     </g>
     <g id="line2d_34">
      <g>
       <use style="stroke:#000000;stroke-width:0.8;" x="57.6" xlink:href="#md66003aa9b" y="47.256684"/>
      </g>
     </g>
     <g id="text_18">
      <!-- 1750 -->
      <g transform="translate(25.15 51.055903)scale(0.1 -0.1)">
       <use xlink:href="#DejaVuSans-49"/>
       <use x="63.623047" xlink:href="#DejaVuSans-55"/>
       <use x="127.246094" xlink:href="#DejaVuSans-53"/>
       <use x="190.869141" xlink:href="#DejaVuSans-48"/>
      </g>
     </g>
    </g>
    <g id="text_19">
     <!-- Fitness -->
     <defs>
      <path d="M 9.8125 72.90625 
L 51.703125 72.90625 
L 51.703125 64.59375 
L 19.671875 64.59375 
L 19.671875 43.109375 
L 48.578125 43.109375 
L 48.578125 34.8125 
L 19.671875 34.8125 
L 19.671875 0 
L 9.8125 0 
z
" id="DejaVuSans-70"/>
     </defs>
     <g transform="translate(19.070312 192.202219)rotate(-90)scale(0.1 -0.1)">
      <use xlink:href="#DejaVuSans-70"/>
      <use x="57.410156" xlink:href="#DejaVuSans-105"/>
      <use x="85.193359" xlink:href="#DejaVuSans-116"/>
      <use x="124.402344" xlink:href="#DejaVuSans-110"/>
      <use x="187.78125" xlink:href="#DejaVuSans-101"/>
      <use x="249.304688" xlink:href="#DejaVuSans-115"/>
      <use x="301.404297" xlink:href="#DejaVuSans-115"/>
     </g>
    </g>
   </g>
   <g id="line2d_35">
    <path clip-path="url(#p3ae30c055a)" d="M 73.832727 271.301416 
L 74.646398 250.169816 
L 75.460068 245.235017 
L 76.273739 249.323627 
L 77.087409 251.045052 
L 77.90108 249.114498 
L 78.714751 244.378366 
L 79.528421 245.165928 
L 80.342092 251.544598 
L 81.155762 246.498106 
L 81.969433 246.40167 
L 82.783103 246.091172 
L 83.596774 244.460711 
L 84.410444 246.672872 
L 85.224115 244.592676 
L 86.037785 243.782543 
L 86.851456 244.302032 
L 87.665126 240.88668 
L 88.478797 239.752353 
L 89.292468 250.340568 
L 90.919809 244.443142 
L 91.733479 238.264612 
L 93.36082 248.503414 
L 94.174491 249.617469 
L 94.988161 242.697771 
L 95.801832 244.550902 
L 96.615502 241.469041 
L 97.429173 242.644169 
L 98.242843 241.974921 
L 99.056514 247.14588 
L 99.870185 236.020075 
L 101.497526 245.800024 
L 102.311196 242.465521 
L 103.124867 229.49154 
L 103.938537 238.304654 
L 104.752208 236.718625 
L 105.565878 242.463869 
L 106.379549 237.751051 
L 107.193219 241.001521 
L 108.00689 237.81283 
L 108.82056 245.019946 
L 109.634231 238.360456 
L 110.447902 239.878885 
L 111.261572 237.509899 
L 112.075243 239.137616 
L 112.888913 247.36585 
L 113.702584 242.29125 
L 114.516254 240.772052 
L 115.329925 239.600352 
L 116.143595 231.220483 
L 116.957266 238.576647 
L 117.770936 241.57527 
L 118.584607 240.214459 
L 119.398278 236.369946 
L 120.211948 237.251366 
L 121.025619 230.838543 
L 121.839289 234.294529 
L 122.65296 232.427873 
L 123.46663 226.497144 
L 124.280301 247.710401 
L 125.907642 235.386341 
L 126.721312 242.598908 
L 127.534983 242.048924 
L 128.348653 245.457687 
L 129.162324 237.573146 
L 129.975995 243.078523 
L 130.789665 244.08318 
L 131.603336 224.582647 
L 132.417006 236.583935 
L 133.230677 236.088627 
L 134.044347 239.070221 
L 134.858018 237.592556 
L 135.671688 247.075511 
L 137.299029 241.992348 
L 138.1127 238.329282 
L 138.92637 245.410939 
L 139.740041 229.217333 
L 140.553712 236.171384 
L 141.367382 230.113958 
L 142.181053 238.633636 
L 142.994723 238.043512 
L 143.808394 245.323061 
L 144.622064 232.486432 
L 145.435735 231.792241 
L 146.249405 236.024287 
L 147.063076 238.033931 
L 147.876746 239.692804 
L 148.690417 233.568973 
L 149.504087 240.415737 
L 150.317758 230.264194 
L 151.131429 228.916778 
L 151.945099 245.07454 
L 152.75877 233.624723 
L 153.57244 242.426702 
L 154.386111 242.15266 
L 155.199781 230.811536 
L 156.013452 249.190626 
L 156.827122 245.492458 
L 157.640793 237.518222 
L 158.454463 243.59704 
L 159.268134 250.958191 
L 160.081805 241.467141 
L 160.895475 243.845313 
L 161.709146 239.950658 
L 162.522816 242.35113 
L 163.336487 242.009197 
L 164.150157 235.169123 
L 164.963828 265.561476 
L 165.777498 248.297552 
L 166.591169 241.554276 
L 167.404839 241.87358 
L 168.21851 243.015354 
L 169.03218 243.421531 
L 169.845851 234.17446 
L 170.659522 243.012468 
L 171.473192 237.866934 
L 172.286863 224.803861 
L 173.100533 238.256435 
L 173.914204 228.239436 
L 174.727874 243.469847 
L 175.541545 230.134606 
L 176.355215 230.067757 
L 177.168886 237.667963 
L 177.982556 242.698019 
L 178.796227 242.480713 
L 179.609897 229.656891 
L 180.423568 226.976755 
L 181.237239 233.043069 
L 182.050909 228.129588 
L 182.86458 236.541234 
L 183.67825 228.776632 
L 184.491921 238.135685 
L 185.305591 223.564551 
L 186.119262 235.334391 
L 186.932932 226.583206 
L 187.746603 222.931177 
L 188.560273 232.718682 
L 189.373944 222.174246 
L 190.187614 214.768991 
L 191.001285 238.341671 
L 191.814956 229.685303 
L 192.628626 225.050865 
L 193.442297 223.809993 
L 194.255967 220.021635 
L 195.069638 219.106508 
L 195.883308 223.237957 
L 196.696979 210.72443 
L 197.510649 213.606004 
L 198.32432 218.390017 
L 199.13799 229.102694 
L 199.951661 247.198574 
L 200.765332 255.349971 
L 201.579002 234.953556 
L 202.392673 247.913909 
L 203.206343 230.493058 
L 204.020014 236.03808 
L 204.833684 217.698139 
L 205.647355 219.089577 
L 206.461025 218.948674 
L 207.274696 223.872103 
L 208.088366 235.60802 
L 208.902037 221.927046 
L 209.715707 215.332438 
L 210.529378 220.688074 
L 211.343049 218.831723 
L 212.156719 200.847508 
L 212.97039 208.534652 
L 213.78406 234.306773 
L 214.597731 210.729386 
L 215.411401 204.603986 
L 216.225072 214.031439 
L 217.038742 221.106796 
L 217.852413 224.196196 
L 218.666083 203.796973 
L 219.479754 210.884825 
L 220.293424 224.593816 
L 221.107095 224.145815 
L 221.920766 224.33453 
L 222.734436 206.797398 
L 223.548107 218.699666 
L 224.361777 223.761098 
L 225.175448 221.358525 
L 225.989118 237.005983 
L 226.802789 218.361089 
L 227.616459 210.51481 
L 228.43013 218.204184 
L 229.2438 217.188511 
L 230.057471 218.484911 
L 231.684812 201.951317 
L 232.498483 204.199117 
L 233.312153 219.514975 
L 234.125824 197.731866 
L 234.939494 222.15642 
L 235.753165 215.932473 
L 236.566835 221.02575 
L 237.380506 207.477579 
L 238.194176 209.861254 
L 239.007847 216.303314 
L 239.821517 202.683459 
L 240.635188 211.035722 
L 241.448859 211.099896 
L 242.262529 212.696164 
L 243.0762 212.252889 
L 243.88987 209.104871 
L 244.703541 227.910883 
L 246.330882 209.232394 
L 247.144552 220.612007 
L 247.958223 226.330803 
L 248.771893 221.633265 
L 249.585564 227.730005 
L 250.399234 223.510512 
L 251.212905 226.07171 
L 252.026576 205.114573 
L 252.840246 221.582057 
L 253.653917 221.072295 
L 254.467587 215.920497 
L 255.281258 212.459288 
L 256.094928 229.920196 
L 256.908599 222.15046 
L 257.722269 221.744186 
L 258.53594 224.224278 
L 259.34961 223.809498 
L 260.163281 224.299189 
L 260.976951 233.742831 
L 261.790622 224.950845 
L 262.604293 231.843283 
L 263.417963 236.058976 
L 264.231634 229.776733 
L 265.045304 238.400146 
L 265.858975 221.20973 
L 266.672645 235.385103 
L 267.486316 232.874287 
L 268.299986 267.707811 
L 269.113657 248.846132 
L 269.927327 244.320386 
L 270.740998 241.044928 
L 271.554668 242.246403 
L 272.368339 228.062853 
L 273.18201 232.804578 
L 273.99568 221.053216 
L 274.809351 222.107098 
L 275.623021 228.177244 
L 276.436692 219.076775 
L 277.250362 224.299355 
L 278.064033 225.849123 
L 278.877703 218.990796 
L 279.691374 213.526633 
L 280.505044 195.407214 
L 281.318715 219.457692 
L 282.132386 215.53669 
L 282.946056 214.777085 
L 283.759727 195.341966 
L 284.573397 220.640171 
L 285.387068 212.782225 
L 286.200738 211.766501 
L 287.014409 217.717548 
L 287.828079 215.550565 
L 288.64175 235.387085 
L 289.45542 221.045618 
L 290.269091 208.690421 
L 291.082761 216.098732 
L 291.896432 220.415684 
L 292.710103 220.174266 
L 293.523773 218.067741 
L 294.337444 215.080365 
L 295.151114 228.109518 
L 295.964785 238.944184 
L 296.778455 223.449889 
L 297.592126 229.682742 
L 298.405796 229.680595 
L 299.219467 218.290823 
L 300.033137 224.725367 
L 300.846808 207.073092 
L 301.660478 212.219439 
L 302.474149 214.275665 
L 303.28782 213.568507 
L 304.10149 212.451277 
L 304.915161 219.255423 
L 305.728831 210.259516 
L 306.542502 210.477808 
L 307.356172 219.921863 
L 308.169843 204.443013 
L 308.983513 218.738558 
L 309.797184 203.395408 
L 310.610854 229.926969 
L 311.424525 218.008852 
L 312.238195 221.71627 
L 313.051866 237.868663 
L 313.865537 211.620312 
L 314.679207 217.549142 
L 315.492878 205.514569 
L 316.306548 230.006423 
L 317.120219 221.596841 
L 317.933889 208.222204 
L 318.74756 215.447407 
L 319.56123 232.501959 
L 320.374901 209.852582 
L 321.188571 216.694143 
L 322.002242 220.84434 
L 322.815913 233.219441 
L 323.629583 208.82959 
L 324.443254 207.462269 
L 325.256924 222.202988 
L 326.070595 224.247321 
L 326.884265 211.355768 
L 327.697936 226.837509 
L 328.511606 234.126969 
L 329.325277 219.775591 
L 330.138947 229.588834 
L 330.952618 217.145842 
L 331.766288 220.970624 
L 332.579959 227.153013 
L 333.39363 227.312416 
L 334.2073 205.751363 
L 335.020971 212.921394 
L 335.834641 217.45862 
L 336.648312 231.987655 
L 337.461982 210.294288 
L 338.275653 211.942754 
L 339.089323 196.855476 
L 339.902994 224.158039 
L 340.716664 220.234806 
L 341.530335 206.861325 
L 342.344005 213.600058 
L 343.157676 201.455059 
L 343.971347 212.912722 
L 344.785017 208.397217 
L 345.598688 215.80685 
L 346.412358 214.772873 
L 347.226029 227.766428 
L 348.039699 230.624959 
L 348.85337 219.875115 
L 349.66704 226.98535 
L 350.480711 199.110254 
L 351.294381 208.697276 
L 352.108052 227.237422 
L 352.921722 218.202036 
L 353.735393 232.483706 
L 354.549064 228.514304 
L 355.362734 216.050911 
L 356.176405 218.109533 
L 356.990075 211.719671 
L 357.803746 226.329812 
L 358.617416 219.54937 
L 359.431087 220.819397 
L 360.244757 223.341198 
L 361.058428 215.072767 
L 361.872098 216.672669 
L 362.685769 226.132002 
L 363.49944 230.286577 
L 364.31311 221.067505 
L 365.126781 197.943221 
L 365.940451 201.569202 
L 366.754122 222.679713 
L 367.567792 213.086827 
L 368.381463 215.494154 
L 369.195133 215.841126 
L 370.008804 215.783642 
L 370.822474 204.863327 
L 371.636145 209.424174 
L 372.449815 217.038224 
L 373.263486 215.636792 
L 374.077157 205.257376 
L 374.890827 213.903916 
L 375.704498 229.298356 
L 376.518168 224.747172 
L 377.331839 222.31358 
L 378.145509 214.949952 
L 378.95918 217.227774 
L 379.77285 220.671556 
L 380.586521 208.292325 
L 381.400191 220.48597 
L 382.213862 217.080924 
L 383.027532 203.410109 
L 383.841203 220.419979 
L 384.654874 212.940803 
L 385.468544 215.867225 
L 386.282215 208.134738 
L 387.095885 223.89655 
L 387.909556 213.511023 
L 388.723226 197.740786 
L 389.536897 209.893218 
L 390.350567 212.79321 
L 391.164238 217.848292 
L 391.977908 206.417555 
L 392.791579 230.816987 
L 393.605249 216.478658 
L 394.41892 217.363969 
L 395.232591 206.506259 
L 396.046261 216.026629 
L 396.859932 238.20052 
L 397.673602 216.338664 
L 398.487273 229.730233 
L 398.487273 229.730233 
" style="fill:none;stroke:#0000ff;stroke-linecap:square;stroke-width:1.5;"/>
   </g>
   <g id="line2d_36">
    <path clip-path="url(#p3ae30c055a)" d="M 73.832727 286.279154 
L 75.460068 264.165654 
L 76.273739 271.084726 
L 77.087409 271.092585 
L 77.90108 270.361204 
L 78.714751 268.9805 
L 79.528421 270.860783 
L 80.342092 274.4247 
L 81.155762 266.172994 
L 81.969433 266.308546 
L 82.783103 267.713568 
L 83.596774 268.563107 
L 84.410444 269.975331 
L 85.224115 265.511665 
L 86.037785 273.368041 
L 86.851456 267.94985 
L 87.665126 267.84345 
L 88.478797 263.147353 
L 89.292468 277.27186 
L 90.106138 272.999081 
L 90.919809 265.695743 
L 91.733479 260.824493 
L 93.36082 269.051167 
L 94.174491 271.04277 
L 94.988161 267.826814 
L 95.801832 272.699409 
L 96.615502 265.673379 
L 97.429173 271.476863 
L 98.242843 266.418155 
L 99.056514 264.485309 
L 99.870185 263.846009 
L 101.497526 268.506237 
L 102.311196 267.260415 
L 103.124867 254.994667 
L 103.938537 275.083837 
L 104.752208 264.508574 
L 105.565878 269.547204 
L 106.379549 262.238955 
L 107.193219 265.748652 
L 108.00689 262.903829 
L 108.82056 265.322004 
L 109.634231 262.384959 
L 110.447902 271.993295 
L 111.261572 267.221842 
L 112.075243 266.646369 
L 112.888913 274.72649 
L 113.702584 263.111739 
L 114.516254 266.420603 
L 115.329925 259.186844 
L 116.143595 256.797546 
L 116.957266 262.753096 
L 117.770936 266.179066 
L 119.398278 258.520608 
L 120.211948 266.004287 
L 121.025619 253.300176 
L 121.839289 251.54615 
L 122.65296 254.761506 
L 123.46663 252.086749 
L 124.280301 268.61569 
L 125.093971 262.593434 
L 125.907642 262.268606 
L 126.721312 268.423302 
L 127.534983 272.136296 
L 128.348653 262.967095 
L 129.162324 259.44146 
L 129.975995 263.379093 
L 130.789665 260.923706 
L 131.603336 249.380804 
L 132.417006 266.386083 
L 133.230677 259.980386 
L 134.044347 265.000859 
L 134.858018 259.977718 
L 135.671688 265.53411 
L 136.485359 279.305955 
L 137.299029 265.99402 
L 138.1127 260.954686 
L 138.92637 273.829054 
L 139.740041 265.056157 
L 140.553712 259.188587 
L 141.367382 259.700377 
L 142.181053 265.258013 
L 142.994723 264.749588 
L 143.808394 265.764355 
L 144.622064 258.82469 
L 145.435735 261.143835 
L 146.249405 262.849284 
L 147.063076 260.771751 
L 147.876746 269.48826 
L 148.690417 264.63016 
L 149.504087 268.601593 
L 150.317758 256.599639 
L 151.131429 251.78003 
L 151.945099 267.492346 
L 152.75877 251.904857 
L 153.57244 268.299098 
L 154.386111 265.613163 
L 155.199781 267.841619 
L 156.013452 272.08414 
L 156.827122 280.361016 
L 157.640793 264.019476 
L 158.454463 258.78044 
L 159.268134 272.49363 
L 160.081805 266.238805 
L 160.895475 267.122398 
L 161.709146 267.095658 
L 162.522816 270.968734 
L 163.336487 273.83962 
L 164.150157 261.690729 
L 164.963828 295.488 
L 165.777498 269.161667 
L 166.591169 260.563536 
L 167.404839 266.600949 
L 168.21851 262.203732 
L 169.03218 266.206545 
L 169.845851 264.257208 
L 170.659522 265.692375 
L 171.473192 269.63662 
L 172.286863 258.804405 
L 173.914204 264.920241 
L 174.727874 263.872199 
L 175.541545 257.043495 
L 176.355215 255.740778 
L 177.168886 277.487822 
L 177.982556 257.211872 
L 178.796227 263.120492 
L 179.609897 252.332983 
L 180.423568 249.422961 
L 181.237239 254.09735 
L 182.050909 259.724798 
L 182.86458 262.335899 
L 183.67825 257.093533 
L 184.491921 268.91873 
L 185.305591 255.801213 
L 186.119262 257.207603 
L 186.932932 269.063367 
L 187.746603 248.311622 
L 188.560273 276.613813 
L 189.373944 256.061477 
L 190.187614 248.832583 
L 191.001285 274.01299 
L 191.814956 259.435375 
L 192.628626 266.27341 
L 193.442297 259.37361 
L 194.255967 261.439549 
L 195.069638 251.957358 
L 195.883308 260.779149 
L 196.696979 244.792142 
L 197.510649 249.925884 
L 198.32432 249.495276 
L 199.13799 258.399943 
L 199.951661 275.168144 
L 200.765332 277.576652 
L 201.579002 264.21151 
L 202.392673 269.678569 
L 203.206343 260.074923 
L 204.020014 272.324334 
L 204.833684 244.145039 
L 205.647355 240.62597 
L 206.461025 243.726891 
L 207.274696 249.837568 
L 208.088366 263.268336 
L 208.902037 243.322484 
L 209.715707 250.50926 
L 210.529378 252.196512 
L 211.343049 255.479619 
L 212.156719 246.973086 
L 212.97039 240.346546 
L 213.78406 262.343685 
L 214.597731 258.037936 
L 215.411401 242.168528 
L 216.225072 260.757401 
L 217.038742 266.377032 
L 217.852413 252.001125 
L 218.666083 234.170867 
L 219.479754 238.911943 
L 220.293424 244.987755 
L 221.107095 250.190516 
L 221.920766 252.324571 
L 222.734436 255.296614 
L 223.548107 260.325947 
L 224.361777 252.198353 
L 225.175448 260.140133 
L 225.989118 263.098698 
L 226.802789 246.413808 
L 227.616459 251.100942 
L 228.43013 252.032829 
L 229.2438 252.291165 
L 230.057471 245.791815 
L 230.871141 249.212509 
L 231.684812 243.605924 
L 232.498483 235.838596 
L 233.312153 264.418371 
L 234.125824 225.978712 
L 234.939494 243.80019 
L 235.753165 245.355292 
L 236.566835 246.661101 
L 237.380506 249.377287 
L 238.194176 239.308909 
L 239.007847 238.040623 
L 239.821517 224.637135 
L 241.448859 244.99843 
L 242.262529 240.776214 
L 243.0762 251.355417 
L 243.88987 237.188708 
L 244.703541 254.816555 
L 245.517211 254.392543 
L 246.330882 236.266021 
L 247.144552 256.86687 
L 247.958223 265.551092 
L 248.771893 244.38223 
L 249.585564 264.831335 
L 250.399234 254.991466 
L 251.212905 264.072849 
L 252.026576 241.170025 
L 252.840246 258.88242 
L 253.653917 249.172207 
L 254.467587 245.268192 
L 255.281258 244.222519 
L 256.094928 260.367387 
L 256.908599 240.017263 
L 257.722269 245.123837 
L 258.53594 245.166939 
L 259.34961 242.691519 
L 260.163281 249.698578 
L 260.976951 259.576204 
L 261.790622 244.077103 
L 262.604293 253.65166 
L 263.417963 260.896235 
L 264.231634 255.954789 
L 265.045304 264.977324 
L 265.858975 247.362246 
L 266.672645 263.503973 
L 267.486316 253.622822 
L 268.299986 288.994171 
L 269.113657 262.85617 
L 269.927327 264.587784 
L 270.740998 264.961017 
L 271.554668 278.012923 
L 272.368339 249.932799 
L 273.18201 268.824156 
L 273.99568 259.97511 
L 275.623021 269.261157 
L 276.436692 254.135682 
L 277.250362 270.069237 
L 278.064033 270.803591 
L 278.877703 252.426964 
L 279.691374 257.741658 
L 280.505044 245.001152 
L 281.318715 260.894487 
L 282.132386 254.080018 
L 282.946056 238.239768 
L 283.759727 233.628038 
L 284.573397 262.553085 
L 285.387068 251.716691 
L 286.200738 250.259639 
L 287.014409 267.579653 
L 287.828079 249.320746 
L 288.64175 273.999704 
L 289.45542 274.598041 
L 290.269091 242.080636 
L 291.082761 255.65485 
L 291.896432 250.742254 
L 292.710103 253.226065 
L 293.523773 249.884686 
L 294.337444 248.016819 
L 295.151114 261.94386 
L 295.964785 265.602233 
L 296.778455 253.063791 
L 297.592126 259.23457 
L 298.405796 270.607289 
L 299.219467 253.852713 
L 300.033137 276.298773 
L 300.846808 246.736535 
L 301.660478 249.971782 
L 302.474149 250.782037 
L 303.28782 253.135679 
L 304.10149 249.891231 
L 304.915161 250.344333 
L 305.728831 254.008724 
L 306.542502 242.749032 
L 307.356172 257.955126 
L 308.169843 254.060888 
L 308.983513 265.043867 
L 309.797184 239.296941 
L 310.610854 251.303024 
L 311.424525 243.711887 
L 312.238195 262.737897 
L 313.051866 267.881988 
L 313.865537 246.887575 
L 314.679207 258.562153 
L 315.492878 238.027888 
L 316.306548 259.271084 
L 317.120219 256.886676 
L 317.933889 237.529299 
L 318.74756 252.479344 
L 319.56123 260.968132 
L 320.374901 241.269357 
L 321.188571 268.618908 
L 322.002242 252.523695 
L 322.815913 260.479292 
L 323.629583 245.873392 
L 324.443254 247.702869 
L 325.256924 254.611799 
L 326.070595 254.106089 
L 326.884265 251.382621 
L 327.697936 256.881445 
L 328.511606 265.651167 
L 329.325277 264.084437 
L 330.138947 266.105495 
L 330.952618 263.277907 
L 331.766288 248.225327 
L 332.579959 264.17418 
L 333.39363 253.396935 
L 334.2073 240.932156 
L 335.020971 259.816526 
L 335.834641 249.509305 
L 336.648312 262.692117 
L 337.461982 236.260041 
L 338.275653 239.609307 
L 339.089323 233.482563 
L 339.902994 247.164955 
L 340.716664 256.265789 
L 341.530335 235.717137 
L 342.344005 257.888288 
L 343.157676 239.653274 
L 343.971347 242.016391 
L 344.785017 239.987072 
L 345.598688 245.422339 
L 346.412358 237.650405 
L 347.226029 264.057077 
L 348.039699 265.698433 
L 348.85337 256.804784 
L 349.66704 261.677708 
L 350.480711 231.284292 
L 351.294381 234.52227 
L 352.108052 257.436279 
L 352.921722 246.886087 
L 353.735393 260.640318 
L 354.549064 258.79893 
L 355.362734 253.080328 
L 356.176405 251.732421 
L 356.990075 240.424797 
L 357.803746 250.427813 
L 358.617416 244.493832 
L 359.431087 249.905179 
L 360.244757 256.436361 
L 361.058428 240.997934 
L 361.872098 259.634996 
L 362.685769 250.892477 
L 364.31311 258.156932 
L 365.126781 240.077226 
L 365.940451 242.979458 
L 366.754122 255.798425 
L 367.567792 247.48466 
L 368.381463 250.690162 
L 369.195133 242.583511 
L 370.008804 254.651789 
L 370.822474 238.951313 
L 371.636145 236.646842 
L 372.449815 247.758838 
L 373.263486 255.945053 
L 374.077157 247.411366 
L 374.890827 252.661968 
L 375.704498 259.140484 
L 376.518168 268.243972 
L 377.331839 261.901357 
L 378.145509 241.297683 
L 378.95918 256.059987 
L 379.77285 258.493762 
L 380.586521 240.514753 
L 381.400191 265.201337 
L 382.213862 249.410358 
L 383.027532 237.660789 
L 383.841203 262.984229 
L 384.654874 247.27039 
L 385.468544 254.795977 
L 386.282215 230.046422 
L 387.095885 252.545101 
L 387.909556 250.509902 
L 388.723226 227.320056 
L 389.536897 247.355292 
L 390.350567 247.464863 
L 391.164238 249.735103 
L 391.977908 241.099627 
L 392.791579 259.952932 
L 393.605249 262.403171 
L 395.232591 238.17581 
L 396.046261 260.407243 
L 396.859932 261.127526 
L 397.673602 244.856958 
L 398.487273 258.489922 
L 398.487273 258.489922 
" style="fill:none;stroke:#008000;stroke-dasharray:9.6,2.4,1.5,2.4;stroke-dashoffset:0;stroke-width:1.5;"/>
   </g>
   <g id="line2d_37">
    <path clip-path="url(#p3ae30c055a)" d="M 73.832727 256.323678 
L 74.646398 225.328465 
L 75.460068 226.30438 
L 76.273739 227.562528 
L 77.087409 230.997519 
L 77.90108 227.867792 
L 78.714751 219.776232 
L 79.528421 219.471073 
L 80.342092 228.664497 
L 81.155762 226.823218 
L 81.969433 226.494794 
L 82.783103 224.468776 
L 83.596774 220.358315 
L 84.410444 223.370413 
L 85.224115 223.673687 
L 86.037785 214.197045 
L 86.851456 220.654215 
L 87.665126 213.929911 
L 88.478797 216.357353 
L 89.292468 223.409276 
L 90.106138 221.693584 
L 90.919809 223.19054 
L 91.733479 215.704731 
L 93.36082 227.955661 
L 94.174491 228.192168 
L 94.988161 217.568729 
L 95.801832 216.402395 
L 96.615502 217.264703 
L 97.429173 213.811474 
L 98.242843 217.531686 
L 99.056514 229.806452 
L 99.870185 208.19414 
L 100.683855 216.326244 
L 101.497526 223.093811 
L 102.311196 217.670627 
L 103.124867 203.988413 
L 103.938537 201.525471 
L 105.565878 215.380534 
L 106.379549 213.263147 
L 107.193219 216.254389 
L 108.00689 212.721832 
L 108.82056 224.717887 
L 109.634231 214.335953 
L 110.447902 207.764475 
L 111.261572 207.797956 
L 112.075243 211.628863 
L 112.888913 220.00521 
L 113.702584 221.470762 
L 114.516254 215.123501 
L 115.329925 220.013859 
L 116.143595 205.64342 
L 116.957266 214.400198 
L 117.770936 216.971475 
L 118.584607 218.256981 
L 119.398278 214.219285 
L 120.211948 208.498444 
L 121.025619 208.376911 
L 121.839289 217.042907 
L 122.65296 210.094241 
L 123.46663 200.90754 
L 124.280301 226.805111 
L 125.093971 220.915032 
L 125.907642 208.504077 
L 126.721312 216.774514 
L 127.534983 211.961551 
L 128.348653 227.948278 
L 129.162324 215.704833 
L 129.975995 222.777954 
L 130.789665 227.242654 
L 131.603336 199.784491 
L 132.417006 206.781786 
L 133.230677 212.196867 
L 134.044347 213.139582 
L 134.858018 215.207394 
L 135.671688 228.616912 
L 136.485359 209.747945 
L 137.299029 217.990675 
L 138.1127 215.703878 
L 138.92637 216.992825 
L 139.740041 193.378508 
L 140.553712 213.154182 
L 141.367382 200.527539 
L 142.181053 212.009258 
L 142.994723 211.337435 
L 143.808394 224.881766 
L 144.622064 206.148173 
L 145.435735 202.440646 
L 147.063076 215.29611 
L 147.876746 209.897348 
L 148.690417 202.507787 
L 149.504087 212.229881 
L 150.317758 203.928749 
L 151.131429 206.053527 
L 151.945099 222.656733 
L 152.75877 215.344589 
L 153.57244 216.554306 
L 154.386111 218.692157 
L 155.199781 193.781452 
L 156.013452 226.297112 
L 156.827122 210.623901 
L 157.640793 211.016969 
L 158.454463 228.41364 
L 159.268134 229.422751 
L 160.081805 216.695477 
L 160.895475 220.568229 
L 161.709146 212.805658 
L 162.522816 213.733526 
L 163.336487 210.178773 
L 164.150157 208.647516 
L 164.963828 235.634952 
L 165.777498 227.433437 
L 167.404839 217.146211 
L 168.21851 223.826975 
L 169.03218 220.636516 
L 169.845851 204.091712 
L 170.659522 220.33256 
L 172.286863 190.803318 
L 173.100533 214.675257 
L 173.914204 191.558631 
L 174.727874 223.067496 
L 175.541545 203.225718 
L 176.355215 204.394736 
L 177.168886 197.848103 
L 177.982556 228.184166 
L 178.796227 221.840935 
L 179.609897 206.980799 
L 180.423568 204.530549 
L 181.237239 211.988788 
L 182.050909 196.534378 
L 182.86458 210.746569 
L 183.67825 200.459731 
L 184.491921 207.35264 
L 185.305591 191.327889 
L 186.119262 213.461178 
L 186.932932 184.103045 
L 187.746603 197.550732 
L 188.560273 188.823551 
L 189.373944 188.287016 
L 190.187614 180.7054 
L 191.001285 202.670352 
L 191.814956 199.93523 
L 192.628626 183.82832 
L 193.442297 188.246377 
L 194.255967 178.60372 
L 195.069638 186.255658 
L 195.883308 185.696764 
L 196.696979 176.656718 
L 197.510649 177.286125 
L 198.32432 187.284758 
L 199.13799 199.805446 
L 199.951661 219.229005 
L 200.765332 233.12329 
L 201.579002 205.695602 
L 202.392673 226.149249 
L 203.206343 200.911194 
L 204.020014 199.751826 
L 204.833684 191.251238 
L 205.647355 197.553183 
L 206.461025 194.170456 
L 207.274696 197.906637 
L 208.088366 207.947704 
L 208.902037 200.531609 
L 209.715707 180.155616 
L 210.529378 189.179637 
L 211.343049 182.183826 
L 212.156719 154.72193 
L 212.97039 176.722758 
L 213.78406 206.269861 
L 214.597731 163.420835 
L 215.411401 167.039443 
L 216.225072 167.305477 
L 217.038742 175.83656 
L 217.852413 196.391268 
L 218.666083 173.423079 
L 219.479754 182.857707 
L 220.293424 204.199877 
L 221.107095 198.101113 
L 221.920766 196.344489 
L 222.734436 158.298182 
L 224.361777 195.323844 
L 225.175448 182.576917 
L 225.989118 210.913267 
L 227.616459 169.928678 
L 228.43013 184.375539 
L 229.2438 182.085858 
L 230.057471 191.178007 
L 230.871141 170.301371 
L 231.684812 160.29671 
L 232.498483 172.559638 
L 233.312153 174.61158 
L 234.125824 169.48502 
L 234.939494 200.51265 
L 235.753165 186.509655 
L 236.566835 195.390399 
L 237.380506 165.577872 
L 239.007847 194.566006 
L 239.821517 180.729784 
L 240.635188 187.692464 
L 241.448859 177.201362 
L 242.262529 184.616114 
L 243.0762 173.150362 
L 243.88987 181.021034 
L 244.703541 201.00521 
L 245.517211 181.862037 
L 246.330882 182.198767 
L 247.144552 184.357144 
L 247.958223 187.110514 
L 248.771893 198.884299 
L 249.585564 190.628674 
L 250.399234 192.029559 
L 251.212905 188.070571 
L 252.026576 169.059121 
L 252.840246 184.281694 
L 253.653917 192.972383 
L 255.281258 180.696057 
L 256.094928 199.473005 
L 256.908599 204.283656 
L 257.722269 198.364536 
L 258.53594 203.281616 
L 259.34961 204.927476 
L 260.163281 198.899801 
L 260.976951 207.909458 
L 261.790622 205.824588 
L 262.604293 210.034905 
L 263.417963 211.221717 
L 264.231634 203.598676 
L 265.045304 211.822969 
L 265.858975 195.057213 
L 266.672645 207.266232 
L 267.486316 212.125752 
L 268.299986 246.42145 
L 269.927327 224.052988 
L 270.740998 217.128839 
L 271.554668 206.479883 
L 272.368339 206.192907 
L 273.18201 196.785001 
L 273.99568 182.131323 
L 274.809351 179.764445 
L 275.623021 187.09333 
L 276.436692 184.017868 
L 277.250362 178.529472 
L 278.064033 180.894655 
L 278.877703 185.554628 
L 279.691374 169.311607 
L 280.505044 145.813275 
L 281.318715 178.020897 
L 282.132386 176.993361 
L 282.946056 191.314402 
L 283.759727 157.055893 
L 284.573397 178.727257 
L 285.387068 173.847759 
L 286.200738 173.273363 
L 287.014409 167.855443 
L 288.64175 196.774466 
L 289.45542 167.493195 
L 290.269091 175.300207 
L 291.082761 176.542614 
L 291.896432 190.089114 
L 292.710103 187.122466 
L 293.523773 186.250796 
L 294.337444 182.143911 
L 295.151114 194.275175 
L 295.964785 212.286135 
L 296.778455 193.835988 
L 297.592126 200.130915 
L 298.405796 188.7539 
L 299.219467 182.728934 
L 300.033137 173.151962 
L 300.846808 167.40965 
L 301.660478 174.467097 
L 302.474149 177.769294 
L 303.28782 174.001336 
L 304.10149 175.011322 
L 304.915161 188.166512 
L 305.728831 166.510308 
L 306.542502 178.206585 
L 307.356172 181.888599 
L 308.169843 154.825137 
L 308.983513 172.433249 
L 309.797184 167.493874 
L 310.610854 208.550913 
L 311.424525 192.305817 
L 312.238195 180.694643 
L 313.051866 207.855338 
L 313.865537 176.35305 
L 314.679207 176.53613 
L 315.492878 173.001251 
L 316.306548 200.741762 
L 317.120219 186.307006 
L 317.933889 178.915109 
L 318.74756 178.41547 
L 319.56123 204.035787 
L 320.374901 178.435807 
L 321.188571 164.769377 
L 322.002242 189.164984 
L 322.815913 205.959591 
L 323.629583 171.785788 
L 324.443254 167.221669 
L 325.256924 189.794178 
L 326.070595 194.388554 
L 326.884265 171.328915 
L 327.697936 196.793573 
L 328.511606 202.602771 
L 329.325277 175.466745 
L 330.138947 193.072174 
L 330.952618 171.013777 
L 331.766288 193.715921 
L 332.579959 190.131845 
L 333.39363 201.227898 
L 334.2073 170.570569 
L 335.020971 166.026262 
L 335.834641 185.407935 
L 336.648312 201.283193 
L 337.461982 184.328535 
L 338.275653 184.276201 
L 339.089323 160.228388 
L 339.902994 201.151123 
L 340.716664 184.203823 
L 341.530335 178.005513 
L 342.344005 169.311827 
L 343.157676 163.256845 
L 343.971347 183.809053 
L 344.785017 176.807363 
L 345.598688 186.191361 
L 346.412358 191.895341 
L 347.226029 191.475779 
L 348.039699 195.551485 
L 348.85337 182.945447 
L 349.66704 192.292991 
L 350.480711 166.936217 
L 352.108052 197.038565 
L 352.921722 189.517986 
L 353.735393 204.327094 
L 354.549064 198.229679 
L 355.362734 179.021494 
L 356.176405 184.486644 
L 356.990075 183.014545 
L 357.803746 202.231811 
L 358.617416 194.604907 
L 359.431087 191.733614 
L 360.244757 190.246034 
L 361.058428 189.147599 
L 361.872098 173.710341 
L 362.685769 201.371528 
L 363.49944 205.919391 
L 364.31311 183.978078 
L 365.126781 155.809215 
L 365.940451 160.158946 
L 366.754122 189.561002 
L 367.567792 178.688994 
L 368.381463 180.298147 
L 369.195133 189.098741 
L 370.008804 176.915494 
L 370.822474 170.77534 
L 371.636145 182.201507 
L 372.449815 186.317609 
L 374.077157 163.103386 
L 374.890827 175.145863 
L 375.704498 199.456228 
L 376.518168 181.250371 
L 377.331839 182.725803 
L 378.145509 188.60222 
L 378.95918 178.39556 
L 379.77285 182.84935 
L 380.586521 176.069896 
L 381.400191 175.770603 
L 382.213862 184.75149 
L 383.027532 169.15943 
L 383.841203 177.855729 
L 384.654874 178.611217 
L 385.468544 176.938473 
L 387.095885 195.247999 
L 387.909556 176.512143 
L 388.723226 168.161516 
L 389.536897 172.431143 
L 390.350567 178.121557 
L 391.164238 185.961481 
L 391.977908 171.735483 
L 392.791579 201.681041 
L 393.605249 170.554146 
L 394.41892 184.406823 
L 395.232591 174.836708 
L 396.046261 171.646015 
L 396.859932 215.273514 
L 397.673602 187.82037 
L 398.487273 200.970544 
L 398.487273 200.970544 
" style="fill:none;stroke:#008000;stroke-dasharray:9.6,2.4,1.5,2.4;stroke-dashoffset:0;stroke-width:1.5;"/>
   </g>
   <g id="line2d_38">
    <path clip-path="url(#p3ae30c055a)" d="M 73.832727 248.994138 
L 74.646398 173.686591 
L 75.460068 205.550662 
L 76.273739 213.288518 
L 77.087409 214.299452 
L 77.90108 219.253028 
L 78.714751 204.242065 
L 79.528421 198.114683 
L 80.342092 188.214552 
L 81.155762 210.039489 
L 82.783103 209.824666 
L 83.596774 203.47544 
L 84.410444 209.994559 
L 85.224115 209.988943 
L 86.037785 183.840859 
L 86.851456 184.012156 
L 87.665126 183.62744 
L 88.478797 204.71243 
L 89.292468 183.631652 
L 90.106138 209.768503 
L 90.919809 209.692683 
L 91.733479 196.466299 
L 92.54715 203.829267 
L 93.36082 209.976306 
L 94.174491 209.886445 
L 95.801832 167.987452 
L 96.615502 193.915095 
L 97.429173 156.000866 
L 98.242843 191.835661 
L 99.056514 216.25954 
L 99.870185 196.095623 
L 100.683855 200.467912 
L 101.497526 198.090814 
L 102.311196 204.11991 
L 103.124867 186.63216 
L 103.938537 162.553683 
L 104.752208 162.038387 
L 105.565878 177.391944 
L 106.379549 178.652803 
L 107.193219 209.208277 
L 108.00689 195.213864 
L 108.82056 206.098252 
L 109.634231 184.827924 
L 110.447902 174.072712 
L 111.261572 172.814661 
L 112.075243 197.516547 
L 112.888913 197.899859 
L 113.702584 202.752342 
L 114.516254 196.155999 
L 115.329925 202.548751 
L 116.143595 186.510005 
L 116.957266 185.032919 
L 117.770936 182.063301 
L 118.584607 197.958831 
L 119.398278 192.339724 
L 120.211948 174.224352 
L 121.025619 182.570172 
L 121.839289 210.08442 
L 122.65296 178.026586 
L 123.46663 183.280634 
L 124.280301 207.524791 
L 125.093971 192.581224 
L 125.907642 169.394335 
L 126.721312 205.442549 
L 127.534983 163.233255 
L 128.348653 215.765306 
L 129.162324 200.143571 
L 129.975995 213.579162 
L 130.789665 193.052994 
L 131.603336 155.32691 
L 132.417006 149.766774 
L 133.230677 192.116476 
L 134.044347 201.553262 
L 134.858018 197.557265 
L 135.671688 211.44216 
L 136.485359 159.021031 
L 137.299029 186.844175 
L 138.1127 189.98509 
L 138.92637 169.558611 
L 139.740041 135.345523 
L 140.553712 192.704783 
L 141.367382 160.451783 
L 142.181053 172.333063 
L 142.994723 191.035338 
L 143.808394 205.550662 
L 144.622064 178.991185 
L 145.435735 165.756377 
L 146.249405 196.622151 
L 147.063076 189.75763 
L 147.876746 164.964479 
L 148.690417 160.868793 
L 149.504087 182.575788 
L 150.317758 175.951364 
L 151.131429 192.98981 
L 151.945099 196.393287 
L 152.75877 204.740511 
L 153.57244 193.312747 
L 154.386111 178.5138 
L 155.199781 144.167324 
L 156.013452 178.756705 
L 156.827122 168.561718 
L 157.640793 181.043943 
L 158.454463 215.801812 
L 159.268134 212.220017 
L 160.081805 190.796645 
L 160.895475 196.295002 
L 161.709146 163.700812 
L 162.522816 180.6157 
L 163.336487 173.522314 
L 164.150157 169.339576 
L 164.963828 189.631263 
L 165.777498 202.847819 
L 166.591169 200.35699 
L 167.404839 168.907121 
L 168.21851 192.687934 
L 169.03218 181.807759 
L 169.845851 158.612445 
L 170.659522 184.921997 
L 171.473192 176.219542 
L 172.286863 139.202516 
L 173.100533 188.270715 
L 173.914204 116.86088 
L 174.727874 208.452885 
L 175.541545 156.590577 
L 176.355215 176.223754 
L 177.168886 128.431859 
L 177.982556 203.100552 
L 178.796227 192.099627 
L 179.609897 177.630637 
L 180.423568 189.270416 
L 181.237239 185.55383 
L 182.050909 146.225698 
L 182.86458 198.827953 
L 183.67825 150.533399 
L 184.491921 171.63243 
L 185.305591 130.415817 
L 186.119262 168.915545 
L 186.932932 136.04756 
L 187.746603 165.972605 
L 188.560273 120.701024 
L 189.373944 144.832856 
L 190.187614 154.852333 
L 191.001285 123.07391 
L 191.814956 146.755034 
L 192.628626 125.891888 
L 193.442297 131.923793 
L 194.255967 120.212406 
L 195.069638 129.598645 
L 195.883308 158.21088 
L 196.696979 138.619825 
L 197.510649 153.93126 
L 198.32432 145.527873 
L 199.13799 152.701291 
L 199.951661 182.321651 
L 200.765332 194.553949 
L 201.579002 173.891586 
L 202.392673 196.140554 
L 203.206343 167.288223 
L 204.020014 162.703919 
L 204.833684 160.100764 
L 205.647355 173.070202 
L 206.461025 175.952768 
L 207.274696 175.678973 
L 208.088366 186.406104 
L 208.902037 175.62983 
L 209.715707 139.04526 
L 210.529378 141.728447 
L 211.343049 151.881311 
L 212.156719 92.880688 
L 212.97039 125.950859 
L 213.78406 185.246338 
L 214.597731 100.576421 
L 215.411401 92.032627 
L 216.225072 109.69729 
L 217.038742 117.440762 
L 217.852413 175.391138 
L 218.666083 123.208701 
L 219.479754 163.005795 
L 220.293424 190.718017 
L 221.107095 175.09207 
L 221.920766 170.514786 
L 222.734436 100.563784 
L 223.548107 115.06928 
L 224.361777 180.681691 
L 225.175448 113.732601 
L 225.989118 160.607635 
L 226.802789 157.50463 
L 227.616459 95.443124 
L 228.43013 150.109369 
L 229.2438 121.464841 
L 230.057471 159.092639 
L 231.684812 91.121382 
L 232.498483 141.797246 
L 233.312153 115.028562 
L 234.125824 126.41982 
L 234.939494 170.614476 
L 235.753165 142.975265 
L 236.566835 162.703919 
L 237.380506 126.908438 
L 238.194176 172.091562 
L 239.007847 162.788163 
L 239.821517 155.496803 
L 240.635188 160.086723 
L 241.448859 122.082633 
L 242.262529 145.96454 
L 243.0762 121.93661 
L 243.88987 147.344746 
L 244.703541 178.96872 
L 245.517211 92.260087 
L 246.330882 147.27033 
L 247.144552 156.141274 
L 247.958223 107.106773 
L 248.771893 163.716257 
L 249.585564 132.637063 
L 250.399234 138.587532 
L 251.212905 132.704459 
L 252.026576 147.551145 
L 252.840246 165.238274 
L 253.653917 172.26988 
L 254.467587 151.293004 
L 255.281258 137.305611 
L 256.094928 156.170759 
L 256.908599 195.967853 
L 257.722269 173.511082 
L 258.53594 172.605454 
L 259.34961 180.900727 
L 260.163281 177.672759 
L 260.976951 178.607873 
L 261.790622 192.013978 
L 262.604293 171.25333 
L 263.417963 200.779617 
L 264.231634 185.351644 
L 265.045304 181.761425 
L 265.858975 177.633445 
L 266.672645 177.778065 
L 267.486316 188.59646 
L 268.299986 221.830909 
L 269.113657 225.83533 
L 269.927327 222.715476 
L 270.740998 209.204065 
L 271.554668 159.572832 
L 272.368339 184.886895 
L 273.18201 158.328822 
L 273.99568 123.989367 
L 274.809351 140.150267 
L 275.623021 145.979985 
L 276.436692 159.811525 
L 277.250362 132.215841 
L 278.877703 155.54033 
L 279.691374 105.998958 
L 280.505044 83.010043 
L 281.318715 155.449065 
L 282.132386 154.633297 
L 282.946056 161.395321 
L 283.759727 124.657706 
L 284.573397 123.868616 
L 285.387068 132.120363 
L 286.200738 111.080304 
L 287.014409 106.035464 
L 287.828079 136.530562 
L 288.64175 131.151552 
L 289.45542 108.413966 
L 290.269091 146.749418 
L 291.082761 141.437803 
L 291.896432 161.645246 
L 292.710103 158.465017 
L 293.523773 160.127442 
L 294.337444 140.686623 
L 295.151114 155.305849 
L 295.964785 187.022493 
L 296.778455 165.679153 
L 297.592126 180.763128 
L 298.405796 137.030413 
L 299.219467 141.774781 
L 300.033137 119.233766 
L 300.846808 153.081795 
L 301.660478 139.305014 
L 302.474149 149.594073 
L 303.28782 162.451185 
L 304.10149 156.653761 
L 304.915161 165.719871 
L 305.728831 122.628818 
L 306.542502 137.774572 
L 307.356172 141.89834 
L 308.169843 78.994389 
L 310.610854 172.734628 
L 311.424525 171.490618 
L 312.238195 117.697708 
L 313.051866 186.754314 
L 313.865537 129.357144 
L 314.679207 153.133746 
L 315.492878 123.117436 
L 316.306548 179.514905 
L 317.120219 122.366257 
L 317.933889 155.722859 
L 318.74756 150.934965 
L 319.56123 171.567842 
L 320.374901 152.61143 
L 321.188571 53.568 
L 322.002242 150.239948 
L 322.815913 185.841666 
L 323.629583 119.958268 
L 324.443254 130.453727 
L 325.256924 136.951785 
L 326.070595 160.500926 
L 326.884265 123.805433 
L 327.697936 164.598016 
L 328.511606 181.453932 
L 329.325277 108.713034 
L 330.138947 94.075555 
L 330.952618 73.166075 
L 331.766288 175.544182 
L 332.579959 157.998864 
L 333.39363 178.626126 
L 334.2073 100.688747 
L 335.020971 113.071282 
L 335.834641 164.648562 
L 336.648312 176.322039 
L 337.461982 159.83399 
L 338.275653 160.124634 
L 339.089323 121.122246 
L 339.902994 197.067243 
L 340.716664 152.417667 
L 341.530335 154.638914 
L 342.344005 144.94097 
L 343.157676 113.314187 
L 343.971347 163.904403 
L 344.785017 141.274931 
L 345.598688 166.122841 
L 346.412358 162.365537 
L 347.226029 129.528442 
L 348.039699 139.809077 
L 348.85337 132.944555 
L 349.66704 135.393262 
L 350.480711 143.699768 
L 351.294381 159.4928 
L 352.108052 165.733912 
L 352.921722 166.371362 
L 353.735393 182.396066 
L 354.549064 149.005766 
L 356.176405 119.409275 
L 356.990075 167.658898 
L 357.803746 155.484167 
L 358.617416 153.143574 
L 359.431087 156.035968 
L 360.244757 120.758591 
L 361.058428 157.532712 
L 361.872098 137.50499 
L 362.685769 176.983358 
L 363.49944 195.050992 
L 364.31311 113.682054 
L 365.126781 109.320998 
L 365.940451 125.702338 
L 366.754122 174.095177 
L 367.567792 118.469949 
L 368.381463 143.101632 
L 369.195133 171.720886 
L 370.008804 136.793124 
L 370.822474 143.274333 
L 371.636145 172.619494 
L 372.449815 163.068978 
L 373.263486 138.244937 
L 374.077157 128.631238 
L 375.704498 148.25599 
L 376.518168 132.58792 
L 377.331839 142.872768 
L 378.95918 157.80791 
L 379.77285 157.298231 
L 380.586521 136.941956 
L 381.400191 149.64462 
L 382.213862 166.354513 
L 383.027532 129.935623 
L 383.841203 141.738275 
L 384.654874 155.597897 
L 385.468544 86.520229 
L 386.282215 170.057058 
L 387.095885 168.428331 
L 387.909556 131.289151 
L 388.723226 144.641902 
L 389.536897 102.820133 
L 390.350567 166.704128 
L 391.164238 144.814603 
L 391.977908 149.102647 
L 392.791579 185.977861 
L 393.605249 128.545589 
L 394.41892 172.463642 
L 396.046261 99.805584 
L 396.859932 204.775613 
L 397.673602 152.259007 
L 398.487273 193.901055 
L 398.487273 193.901055 
" style="fill:none;stroke:#ff0000;stroke-linecap:square;stroke-width:1.5;"/>
   </g>
   <g id="patch_3">
    <path d="M 57.6 307.584 
L 57.6 41.472 
" style="fill:none;stroke:#000000;stroke-linecap:square;stroke-linejoin:miter;stroke-width:0.8;"/>
   </g>
   <g id="patch_4">
    <path d="M 414.72 307.584 
L 414.72 41.472 
" style="fill:none;stroke:#000000;stroke-linecap:square;stroke-linejoin:miter;stroke-width:0.8;"/>
   </g>
   <g id="patch_5">
    <path d="M 57.6 307.584 
L 414.72 307.584 
" style="fill:none;stroke:#000000;stroke-linecap:square;stroke-linejoin:miter;stroke-width:0.8;"/>
   </g>
   <g id="patch_6">
    <path d="M 57.6 41.472 
L 414.72 41.472 
" style="fill:none;stroke:#000000;stroke-linecap:square;stroke-linejoin:miter;stroke-width:0.8;"/>
   </g>
   <g id="text_20">
    <!-- Population's average and best fitness -->
    <defs>
     <path d="M 19.671875 64.796875 
L 19.671875 37.40625 
L 32.078125 37.40625 
Q 38.96875 37.40625 42.71875 40.96875 
Q 46.484375 44.53125 46.484375 51.125 
Q 46.484375 57.671875 42.71875 61.234375 
Q 38.96875 64.796875 32.078125 64.796875 
z
M 9.8125 72.90625 
L 32.078125 72.90625 
Q 44.34375 72.90625 50.609375 67.359375 
Q 56.890625 61.8125 56.890625 51.125 
Q 56.890625 40.328125 50.609375 34.8125 
Q 44.34375 29.296875 32.078125 29.296875 
L 19.671875 29.296875 
L 19.671875 0 
L 9.8125 0 
z
" id="DejaVuSans-80"/>
     <path d="M 18.109375 8.203125 
L 18.109375 -20.796875 
L 9.078125 -20.796875 
L 9.078125 54.6875 
L 18.109375 54.6875 
L 18.109375 46.390625 
Q 20.953125 51.265625 25.265625 53.625 
Q 29.59375 56 35.59375 56 
Q 45.5625 56 51.78125 48.09375 
Q 58.015625 40.1875 58.015625 27.296875 
Q 58.015625 14.40625 51.78125 6.484375 
Q 45.5625 -1.421875 35.59375 -1.421875 
Q 29.59375 -1.421875 25.265625 0.953125 
Q 20.953125 3.328125 18.109375 8.203125 
z
M 48.6875 27.296875 
Q 48.6875 37.203125 44.609375 42.84375 
Q 40.53125 48.484375 33.40625 48.484375 
Q 26.265625 48.484375 22.1875 42.84375 
Q 18.109375 37.203125 18.109375 27.296875 
Q 18.109375 17.390625 22.1875 11.75 
Q 26.265625 6.109375 33.40625 6.109375 
Q 40.53125 6.109375 44.609375 11.75 
Q 48.6875 17.390625 48.6875 27.296875 
z
" id="DejaVuSans-112"/>
     <path d="M 8.5 21.578125 
L 8.5 54.6875 
L 17.484375 54.6875 
L 17.484375 21.921875 
Q 17.484375 14.15625 20.5 10.265625 
Q 23.53125 6.390625 29.59375 6.390625 
Q 36.859375 6.390625 41.078125 11.03125 
Q 45.3125 15.671875 45.3125 23.6875 
L 45.3125 54.6875 
L 54.296875 54.6875 
L 54.296875 0 
L 45.3125 0 
L 45.3125 8.40625 
Q 42.046875 3.421875 37.71875 1 
Q 33.40625 -1.421875 27.6875 -1.421875 
Q 18.265625 -1.421875 13.375 4.4375 
Q 8.5 10.296875 8.5 21.578125 
z
M 31.109375 56 
z
" id="DejaVuSans-117"/>
     <path d="M 9.421875 75.984375 
L 18.40625 75.984375 
L 18.40625 0 
L 9.421875 0 
z
" id="DejaVuSans-108"/>
     <path d="M 17.921875 72.90625 
L 17.921875 45.796875 
L 9.625 45.796875 
L 9.625 72.90625 
z
" id="DejaVuSans-39"/>
     <path id="DejaVuSans-32"/>
     <path d="M 2.984375 54.6875 
L 12.5 54.6875 
L 29.59375 8.796875 
L 46.6875 54.6875 
L 56.203125 54.6875 
L 35.6875 0 
L 23.484375 0 
z
" id="DejaVuSans-118"/>
     <path d="M 45.40625 27.984375 
Q 45.40625 37.75 41.375 43.109375 
Q 37.359375 48.484375 30.078125 48.484375 
Q 22.859375 48.484375 18.828125 43.109375 
Q 14.796875 37.75 14.796875 27.984375 
Q 14.796875 18.265625 18.828125 12.890625 
Q 22.859375 7.515625 30.078125 7.515625 
Q 37.359375 7.515625 41.375 12.890625 
Q 45.40625 18.265625 45.40625 27.984375 
z
M 54.390625 6.78125 
Q 54.390625 -7.171875 48.1875 -13.984375 
Q 42 -20.796875 29.203125 -20.796875 
Q 24.46875 -20.796875 20.265625 -20.09375 
Q 16.0625 -19.390625 12.109375 -17.921875 
L 12.109375 -9.1875 
Q 16.0625 -11.328125 19.921875 -12.34375 
Q 23.78125 -13.375 27.78125 -13.375 
Q 36.625 -13.375 41.015625 -8.765625 
Q 45.40625 -4.15625 45.40625 5.171875 
L 45.40625 9.625 
Q 42.625 4.78125 38.28125 2.390625 
Q 33.9375 0 27.875 0 
Q 17.828125 0 11.671875 7.65625 
Q 5.515625 15.328125 5.515625 27.984375 
Q 5.515625 40.671875 11.671875 48.328125 
Q 17.828125 56 27.875 56 
Q 33.9375 56 38.28125 53.609375 
Q 42.625 51.21875 45.40625 46.390625 
L 45.40625 54.6875 
L 54.390625 54.6875 
z
" id="DejaVuSans-103"/>
     <path d="M 45.40625 46.390625 
L 45.40625 75.984375 
L 54.390625 75.984375 
L 54.390625 0 
L 45.40625 0 
L 45.40625 8.203125 
Q 42.578125 3.328125 38.25 0.953125 
Q 33.9375 -1.421875 27.875 -1.421875 
Q 17.96875 -1.421875 11.734375 6.484375 
Q 5.515625 14.40625 5.515625 27.296875 
Q 5.515625 40.1875 11.734375 48.09375 
Q 17.96875 56 27.875 56 
Q 33.9375 56 38.25 53.625 
Q 42.578125 51.265625 45.40625 46.390625 
z
M 14.796875 27.296875 
Q 14.796875 17.390625 18.875 11.75 
Q 22.953125 6.109375 30.078125 6.109375 
Q 37.203125 6.109375 41.296875 11.75 
Q 45.40625 17.390625 45.40625 27.296875 
Q 45.40625 37.203125 41.296875 42.84375 
Q 37.203125 48.484375 30.078125 48.484375 
Q 22.953125 48.484375 18.875 42.84375 
Q 14.796875 37.203125 14.796875 27.296875 
z
" id="DejaVuSans-100"/>
     <path d="M 48.6875 27.296875 
Q 48.6875 37.203125 44.609375 42.84375 
Q 40.53125 48.484375 33.40625 48.484375 
Q 26.265625 48.484375 22.1875 42.84375 
Q 18.109375 37.203125 18.109375 27.296875 
Q 18.109375 17.390625 22.1875 11.75 
Q 26.265625 6.109375 33.40625 6.109375 
Q 40.53125 6.109375 44.609375 11.75 
Q 48.6875 17.390625 48.6875 27.296875 
z
M 18.109375 46.390625 
Q 20.953125 51.265625 25.265625 53.625 
Q 29.59375 56 35.59375 56 
Q 45.5625 56 51.78125 48.09375 
Q 58.015625 40.1875 58.015625 27.296875 
Q 58.015625 14.40625 51.78125 6.484375 
Q 45.5625 -1.421875 35.59375 -1.421875 
Q 29.59375 -1.421875 25.265625 0.953125 
Q 20.953125 3.328125 18.109375 8.203125 
L 18.109375 0 
L 9.078125 0 
L 9.078125 75.984375 
L 18.109375 75.984375 
z
" id="DejaVuSans-98"/>
     <path d="M 37.109375 75.984375 
L 37.109375 68.5 
L 28.515625 68.5 
Q 23.6875 68.5 21.796875 66.546875 
Q 19.921875 64.59375 19.921875 59.515625 
L 19.921875 54.6875 
L 34.71875 54.6875 
L 34.71875 47.703125 
L 19.921875 47.703125 
L 19.921875 0 
L 10.890625 0 
L 10.890625 47.703125 
L 2.296875 47.703125 
L 2.296875 54.6875 
L 10.890625 54.6875 
L 10.890625 58.5 
Q 10.890625 67.625 15.140625 71.796875 
Q 19.390625 75.984375 28.609375 75.984375 
z
" id="DejaVuSans-102"/>
    </defs>
    <g transform="translate(123.315 35.472)scale(0.12 -0.12)">
     <use xlink:href="#DejaVuSans-80"/>
     <use x="60.255859" xlink:href="#DejaVuSans-111"/>
     <use x="121.4375" xlink:href="#DejaVuSans-112"/>
     <use x="184.914062" xlink:href="#DejaVuSans-117"/>
     <use x="248.292969" xlink:href="#DejaVuSans-108"/>
     <use x="276.076172" xlink:href="#DejaVuSans-97"/>
     <use x="337.355469" xlink:href="#DejaVuSans-116"/>
     <use x="376.564453" xlink:href="#DejaVuSans-105"/>
     <use x="404.347656" xlink:href="#DejaVuSans-111"/>
     <use x="465.529297" xlink:href="#DejaVuSans-110"/>
     <use x="528.908203" xlink:href="#DejaVuSans-39"/>
     <use x="556.398438" xlink:href="#DejaVuSans-115"/>
     <use x="608.498047" xlink:href="#DejaVuSans-32"/>
     <use x="640.285156" xlink:href="#DejaVuSans-97"/>
     <use x="701.564453" xlink:href="#DejaVuSans-118"/>
     <use x="760.744141" xlink:href="#DejaVuSans-101"/>
     <use x="822.267578" xlink:href="#DejaVuSans-114"/>
     <use x="863.380859" xlink:href="#DejaVuSans-97"/>
     <use x="924.660156" xlink:href="#DejaVuSans-103"/>
     <use x="988.136719" xlink:href="#DejaVuSans-101"/>
     <use x="1049.660156" xlink:href="#DejaVuSans-32"/>
     <use x="1081.447266" xlink:href="#DejaVuSans-97"/>
     <use x="1142.726562" xlink:href="#DejaVuSans-110"/>
     <use x="1206.105469" xlink:href="#DejaVuSans-100"/>
     <use x="1269.582031" xlink:href="#DejaVuSans-32"/>
     <use x="1301.369141" xlink:href="#DejaVuSans-98"/>
     <use x="1364.845703" xlink:href="#DejaVuSans-101"/>
     <use x="1426.369141" xlink:href="#DejaVuSans-115"/>
     <use x="1478.46875" xlink:href="#DejaVuSans-116"/>
     <use x="1517.677734" xlink:href="#DejaVuSans-32"/>
     <use x="1549.464844" xlink:href="#DejaVuSans-102"/>
     <use x="1584.669922" xlink:href="#DejaVuSans-105"/>
     <use x="1612.453125" xlink:href="#DejaVuSans-116"/>
     <use x="1651.662109" xlink:href="#DejaVuSans-110"/>
     <use x="1715.041016" xlink:href="#DejaVuSans-101"/>
     <use x="1776.564453" xlink:href="#DejaVuSans-115"/>
     <use x="1828.664062" xlink:href="#DejaVuSans-115"/>
    </g>
   </g>
   <g id="legend_1">
    <g id="patch_7">
     <path d="M 64.6 108.1845 
L 137.540625 108.1845 
Q 139.540625 108.1845 139.540625 106.1845 
L 139.540625 48.472 
Q 139.540625 46.472 137.540625 46.472 
L 64.6 46.472 
Q 62.6 46.472 62.6 48.472 
L 62.6 106.1845 
Q 62.6 108.1845 64.6 108.1845 
z
" style="fill:#ffffff;opacity:0.8;stroke:#cccccc;stroke-linejoin:miter;"/>
    </g>
    <g id="line2d_39">
     <path d="M 66.6 54.570438 
L 86.6 54.570438 
" style="fill:none;stroke:#0000ff;stroke-linecap:square;stroke-width:1.5;"/>
    </g>
    <g id="line2d_40"/>
    <g id="text_21">
     <!-- average -->
     <g transform="translate(94.6 58.070438)scale(0.1 -0.1)">
      <use xlink:href="#DejaVuSans-97"/>
      <use x="61.279297" xlink:href="#DejaVuSans-118"/>
      <use x="120.458984" xlink:href="#DejaVuSans-101"/>
      <use x="181.982422" xlink:href="#DejaVuSans-114"/>
      <use x="223.095703" xlink:href="#DejaVuSans-97"/>
      <use x="284.375" xlink:href="#DejaVuSans-103"/>
      <use x="347.851562" xlink:href="#DejaVuSans-101"/>
     </g>
    </g>
    <g id="line2d_41">
     <path d="M 66.6 69.248563 
L 86.6 69.248563 
" style="fill:none;stroke:#008000;stroke-dasharray:9.6,2.4,1.5,2.4;stroke-dashoffset:0;stroke-width:1.5;"/>
    </g>
    <g id="line2d_42"/>
    <g id="text_22">
     <!-- -1 sd -->
     <defs>
      <path d="M 4.890625 31.390625 
L 31.203125 31.390625 
L 31.203125 23.390625 
L 4.890625 23.390625 
z
" id="DejaVuSans-45"/>
     </defs>
     <g transform="translate(94.6 72.748563)scale(0.1 -0.1)">
      <use xlink:href="#DejaVuSans-45"/>
      <use x="36.083984" xlink:href="#DejaVuSans-49"/>
      <use x="99.707031" xlink:href="#DejaVuSans-32"/>
      <use x="131.494141" xlink:href="#DejaVuSans-115"/>
      <use x="183.59375" xlink:href="#DejaVuSans-100"/>
     </g>
    </g>
    <g id="line2d_43">
     <path d="M 66.6 83.926688 
L 86.6 83.926688 
" style="fill:none;stroke:#008000;stroke-dasharray:9.6,2.4,1.5,2.4;stroke-dashoffset:0;stroke-width:1.5;"/>
    </g>
    <g id="line2d_44"/>
    <g id="text_23">
     <!-- +1 sd -->
     <defs>
      <path d="M 46 62.703125 
L 46 35.5 
L 73.1875 35.5 
L 73.1875 27.203125 
L 46 27.203125 
L 46 0 
L 37.796875 0 
L 37.796875 27.203125 
L 10.59375 27.203125 
L 10.59375 35.5 
L 37.796875 35.5 
L 37.796875 62.703125 
z
" id="DejaVuSans-43"/>
     </defs>
     <g transform="translate(94.6 87.426688)scale(0.1 -0.1)">
      <use xlink:href="#DejaVuSans-43"/>
      <use x="83.789062" xlink:href="#DejaVuSans-49"/>
      <use x="147.412109" xlink:href="#DejaVuSans-32"/>
      <use x="179.199219" xlink:href="#DejaVuSans-115"/>
      <use x="231.298828" xlink:href="#DejaVuSans-100"/>
     </g>
    </g>
    <g id="line2d_45">
     <path d="M 66.6 98.604813 
L 86.6 98.604813 
" style="fill:none;stroke:#ff0000;stroke-linecap:square;stroke-width:1.5;"/>
    </g>
    <g id="line2d_46"/>
    <g id="text_24">
     <!-- best -->
     <g transform="translate(94.6 102.104813)scale(0.1 -0.1)">
      <use xlink:href="#DejaVuSans-98"/>
      <use x="63.476562" xlink:href="#DejaVuSans-101"/>
      <use x="125" xlink:href="#DejaVuSans-115"/>
      <use x="177.099609" xlink:href="#DejaVuSans-116"/>
     </g>
    </g>
   </g>
  </g>
 </g>
 <defs>
  <clipPath id="p3ae30c055a">
   <rect height="266.112" width="357.12" x="57.6" y="41.472"/>
  </clipPath>
 </defs>
</svg>
