<?xml version="1.0" encoding="utf-8" standalone="no"?>
<!DOCTYPE svg PUBLIC "-//W3C//DTD SVG 1.1//EN"
  "http://www.w3.org/Graphics/SVG/1.1/DTD/svg11.dtd">
<!-- Created with matplotlib (https://matplotlib.org/) -->
<svg height="345.6pt" version="1.1" viewBox="0 0 460.8 345.6" width="460.8pt" xmlns="http://www.w3.org/2000/svg" xmlns:xlink="http://www.w3.org/1999/xlink">
 <defs>
  <style type="text/css">
*{stroke-linecap:butt;stroke-linejoin:round;}
  </style>
 </defs>
 <g id="figure_1">
  <g id="patch_1">
   <path d="M 0 345.6 
L 460.8 345.6 
L 460.8 0 
L 0 0 
z
" style="fill:#ffffff;"/>
  </g>
  <g id="axes_1">
   <g id="patch_2">
    <path d="M 57.6 307.584 
L 414.72 307.584 
L 414.72 41.472 
L 57.6 41.472 
z
" style="fill:#ffffff;"/>
   </g>
   <g id="PolyCollection_1">
    <path clip-path="url(#pf24523284e)" d="M 73.832727 110.464 
L 73.832727 307.584 
L 76.607552 307.584 
L 79.382378 307.584 
L 82.157203 307.584 
L 84.932028 307.584 
L 87.706853 307.584 
L 90.481678 307.584 
L 93.256503 307.584 
L 96.031329 307.584 
L 98.806154 307.584 
L 101.580979 307.584 
L 104.355804 307.584 
L 107.130629 307.584 
L 109.905455 307.584 
L 112.68028 307.584 
L 115.455105 307.584 
L 118.22993 307.584 
L 121.004755 307.584 
L 123.77958 307.584 
L 126.554406 307.584 
L 129.329231 307.584 
L 132.104056 307.584 
L 134.878881 307.584 
L 137.653706 307.584 
L 140.428531 307.584 
L 143.203357 307.584 
L 145.978182 307.584 
L 148.753007 307.584 
L 151.527832 307.584 
L 154.302657 307.584 
L 157.077483 307.584 
L 159.852308 307.584 
L 162.627133 307.584 
L 165.401958 307.584 
L 168.176783 307.584 
L 170.951608 307.584 
L 173.726434 307.584 
L 176.501259 307.584 
L 179.276084 307.584 
L 182.050909 307.584 
L 184.825734 307.584 
L 187.600559 307.584 
L 190.375385 307.584 
L 193.15021 307.584 
L 195.925035 307.584 
L 198.69986 307.584 
L 201.474685 307.584 
L 204.24951 307.584 
L 207.024336 307.584 
L 209.799161 307.584 
L 212.573986 307.584 
L 215.348811 307.584 
L 218.123636 307.584 
L 220.898462 307.584 
L 223.673287 307.584 
L 226.448112 307.584 
L 229.222937 307.584 
L 231.997762 307.584 
L 234.772587 307.584 
L 237.547413 307.584 
L 240.322238 307.584 
L 243.097063 307.584 
L 245.871888 307.584 
L 248.646713 307.584 
L 251.421538 307.584 
L 254.196364 307.584 
L 256.971189 307.584 
L 259.746014 307.584 
L 262.520839 307.584 
L 265.295664 307.584 
L 268.07049 307.584 
L 270.845315 307.584 
L 273.62014 307.584 
L 276.394965 307.584 
L 279.16979 307.584 
L 281.944615 307.584 
L 284.719441 307.584 
L 287.494266 307.584 
L 290.269091 307.584 
L 293.043916 307.584 
L 295.818741 307.584 
L 298.593566 307.584 
L 301.368392 307.584 
L 304.143217 307.584 
L 306.918042 307.584 
L 309.692867 307.584 
L 312.467692 307.584 
L 315.242517 307.584 
L 318.017343 307.584 
L 320.792168 307.584 
L 323.566993 307.584 
L 326.341818 307.584 
L 329.116643 307.584 
L 331.891469 307.584 
L 334.666294 307.584 
L 337.441119 307.584 
L 340.215944 307.584 
L 342.990769 307.584 
L 345.765594 307.584 
L 348.54042 307.584 
L 351.315245 307.584 
L 354.09007 307.584 
L 356.864895 307.584 
L 359.63972 307.584 
L 362.414545 307.584 
L 365.189371 307.584 
L 367.964196 307.584 
L 370.739021 307.584 
L 373.513846 307.584 
L 376.288671 307.584 
L 379.063497 307.584 
L 381.838322 307.584 
L 384.613147 307.584 
L 387.387972 307.584 
L 390.162797 307.584 
L 392.937622 307.584 
L 395.712448 307.584 
L 398.487273 307.584 
L 398.487273 307.584 
L 398.487273 307.584 
L 395.712448 307.584 
L 392.937622 307.584 
L 390.162797 307.584 
L 387.387972 307.584 
L 384.613147 307.584 
L 381.838322 307.584 
L 379.063497 307.584 
L 376.288671 307.584 
L 373.513846 180.864 
L 370.739021 194.944 
L 367.964196 180.864 
L 365.189371 194.944 
L 362.414545 180.864 
L 359.63972 194.944 
L 356.864895 209.024 
L 354.09007 194.944 
L 351.315245 209.024 
L 348.54042 180.864 
L 345.765594 166.784 
L 342.990769 180.864 
L 340.215944 194.944 
L 337.441119 180.864 
L 334.666294 166.784 
L 331.891469 180.864 
L 329.116643 166.784 
L 326.341818 180.864 
L 323.566993 166.784 
L 320.792168 152.704 
L 318.017343 166.784 
L 315.242517 152.704 
L 312.467692 138.624 
L 309.692867 124.544 
L 306.918042 138.624 
L 304.143217 152.704 
L 301.368392 166.784 
L 298.593566 180.864 
L 295.818741 152.704 
L 293.043916 166.784 
L 290.269091 152.704 
L 287.494266 166.784 
L 284.719441 180.864 
L 281.944615 166.784 
L 279.16979 152.704 
L 276.394965 166.784 
L 273.62014 180.864 
L 270.845315 166.784 
L 268.07049 180.864 
L 265.295664 194.944 
L 262.520839 180.864 
L 259.746014 166.784 
L 256.971189 180.864 
L 254.196364 194.944 
L 251.421538 209.024 
L 248.646713 194.944 
L 245.871888 209.024 
L 243.097063 68.224 
L 240.322238 68.224 
L 237.547413 68.224 
L 234.772587 68.224 
L 231.997762 68.224 
L 229.222937 68.224 
L 226.448112 68.224 
L 223.673287 68.224 
L 220.898462 68.224 
L 218.123636 68.224 
L 215.348811 68.224 
L 212.573986 68.224 
L 209.799161 68.224 
L 207.024336 68.224 
L 204.24951 110.464 
L 201.474685 110.464 
L 198.69986 110.464 
L 195.925035 110.464 
L 193.15021 110.464 
L 190.375385 110.464 
L 187.600559 110.464 
L 184.825734 110.464 
L 182.050909 209.024 
L 179.276084 223.104 
L 176.501259 251.264 
L 173.726434 251.264 
L 170.951608 251.264 
L 168.176783 251.264 
L 165.401958 251.264 
L 162.627133 251.264 
L 159.852308 251.264 
L 157.077483 251.264 
L 154.302657 251.264 
L 151.527832 251.264 
L 148.753007 251.264 
L 145.978182 251.264 
L 143.203357 251.264 
L 140.428531 237.184 
L 137.653706 237.184 
L 134.878881 237.184 
L 132.104056 237.184 
L 129.329231 251.264 
L 126.554406 251.264 
L 123.77958 251.264 
L 121.004755 251.264 
L 118.22993 251.264 
L 115.455105 237.184 
L 112.68028 237.184 
L 109.905455 251.264 
L 107.130629 237.184 
L 104.355804 251.264 
L 101.580979 265.344 
L 98.806154 251.264 
L 96.031329 251.264 
L 93.256503 251.264 
L 90.481678 237.184 
L 87.706853 251.264 
L 84.932028 223.104 
L 82.157203 237.184 
L 79.382378 237.184 
L 76.607552 237.184 
L 73.832727 110.464 
z
" style="fill:#1f77b4;"/>
   </g>
   <g id="PolyCollection_2">
    <path clip-path="url(#pf24523284e)" d="M 73.832727 82.304 
L 73.832727 110.464 
L 76.607552 237.184 
L 79.382378 237.184 
L 82.157203 237.184 
L 84.932028 223.104 
L 87.706853 251.264 
L 90.481678 237.184 
L 93.256503 251.264 
L 96.031329 251.264 
L 98.806154 251.264 
L 101.580979 265.344 
L 104.355804 251.264 
L 107.130629 237.184 
L 109.905455 251.264 
L 112.68028 237.184 
L 115.455105 237.184 
L 118.22993 251.264 
L 121.004755 251.264 
L 123.77958 251.264 
L 126.554406 251.264 
L 129.329231 251.264 
L 132.104056 237.184 
L 134.878881 237.184 
L 137.653706 237.184 
L 140.428531 237.184 
L 143.203357 251.264 
L 145.978182 251.264 
L 148.753007 251.264 
L 151.527832 251.264 
L 154.302657 251.264 
L 157.077483 251.264 
L 159.852308 251.264 
L 162.627133 251.264 
L 165.401958 251.264 
L 168.176783 251.264 
L 170.951608 251.264 
L 173.726434 251.264 
L 176.501259 251.264 
L 179.276084 223.104 
L 182.050909 209.024 
L 184.825734 110.464 
L 187.600559 110.464 
L 190.375385 110.464 
L 193.15021 110.464 
L 195.925035 110.464 
L 198.69986 110.464 
L 201.474685 110.464 
L 204.24951 110.464 
L 207.024336 68.224 
L 209.799161 68.224 
L 212.573986 68.224 
L 215.348811 68.224 
L 218.123636 68.224 
L 220.898462 68.224 
L 223.673287 68.224 
L 226.448112 68.224 
L 229.222937 68.224 
L 231.997762 68.224 
L 234.772587 68.224 
L 237.547413 68.224 
L 240.322238 68.224 
L 243.097063 68.224 
L 245.871888 209.024 
L 248.646713 194.944 
L 251.421538 209.024 
L 254.196364 194.944 
L 256.971189 180.864 
L 259.746014 166.784 
L 262.520839 180.864 
L 265.295664 194.944 
L 268.07049 180.864 
L 270.845315 166.784 
L 273.62014 180.864 
L 276.394965 166.784 
L 279.16979 152.704 
L 281.944615 166.784 
L 284.719441 180.864 
L 287.494266 166.784 
L 290.269091 152.704 
L 293.043916 166.784 
L 295.818741 152.704 
L 298.593566 180.864 
L 301.368392 166.784 
L 304.143217 152.704 
L 306.918042 138.624 
L 309.692867 124.544 
L 312.467692 138.624 
L 315.242517 152.704 
L 318.017343 166.784 
L 320.792168 152.704 
L 323.566993 166.784 
L 326.341818 180.864 
L 329.116643 166.784 
L 331.891469 180.864 
L 334.666294 166.784 
L 337.441119 180.864 
L 340.215944 194.944 
L 342.990769 180.864 
L 345.765594 166.784 
L 348.54042 180.864 
L 351.315245 209.024 
L 354.09007 194.944 
L 356.864895 209.024 
L 359.63972 194.944 
L 362.414545 180.864 
L 365.189371 194.944 
L 367.964196 180.864 
L 370.739021 194.944 
L 373.513846 180.864 
L 376.288671 307.584 
L 379.063497 307.584 
L 381.838322 307.584 
L 384.613147 307.584 
L 387.387972 307.584 
L 390.162797 307.584 
L 392.937622 307.584 
L 395.712448 307.584 
L 398.487273 307.584 
L 398.487273 307.584 
L 398.487273 307.584 
L 395.712448 307.584 
L 392.937622 307.584 
L 390.162797 307.584 
L 387.387972 307.584 
L 384.613147 307.584 
L 381.838322 307.584 
L 379.063497 307.584 
L 376.288671 307.584 
L 373.513846 180.864 
L 370.739021 194.944 
L 367.964196 180.864 
L 365.189371 194.944 
L 362.414545 180.864 
L 359.63972 194.944 
L 356.864895 209.024 
L 354.09007 194.944 
L 351.315245 209.024 
L 348.54042 180.864 
L 345.765594 166.784 
L 342.990769 180.864 
L 340.215944 194.944 
L 337.441119 180.864 
L 334.666294 166.784 
L 331.891469 180.864 
L 329.116643 166.784 
L 326.341818 180.864 
L 323.566993 166.784 
L 320.792168 152.704 
L 318.017343 166.784 
L 315.242517 152.704 
L 312.467692 138.624 
L 309.692867 124.544 
L 306.918042 138.624 
L 304.143217 152.704 
L 301.368392 166.784 
L 298.593566 180.864 
L 295.818741 152.704 
L 293.043916 166.784 
L 290.269091 152.704 
L 287.494266 166.784 
L 284.719441 180.864 
L 281.944615 166.784 
L 279.16979 152.704 
L 276.394965 166.784 
L 273.62014 180.864 
L 270.845315 166.784 
L 268.07049 180.864 
L 265.295664 194.944 
L 262.520839 180.864 
L 259.746014 166.784 
L 256.971189 180.864 
L 254.196364 194.944 
L 251.421538 209.024 
L 248.646713 194.944 
L 245.871888 209.024 
L 243.097063 68.224 
L 240.322238 68.224 
L 237.547413 68.224 
L 234.772587 68.224 
L 231.997762 68.224 
L 229.222937 68.224 
L 226.448112 68.224 
L 223.673287 68.224 
L 220.898462 68.224 
L 218.123636 68.224 
L 215.348811 68.224 
L 212.573986 68.224 
L 209.799161 68.224 
L 207.024336 68.224 
L 204.24951 110.464 
L 201.474685 110.464 
L 198.69986 110.464 
L 195.925035 110.464 
L 193.15021 110.464 
L 190.375385 110.464 
L 187.600559 110.464 
L 184.825734 110.464 
L 182.050909 110.464 
L 179.276084 138.624 
L 176.501259 180.864 
L 173.726434 180.864 
L 170.951608 180.864 
L 168.176783 180.864 
L 165.401958 180.864 
L 162.627133 180.864 
L 159.852308 180.864 
L 157.077483 180.864 
L 154.302657 180.864 
L 151.527832 180.864 
L 148.753007 180.864 
L 145.978182 180.864 
L 143.203357 152.704 
L 140.428531 152.704 
L 137.653706 152.704 
L 134.878881 152.704 
L 132.104056 152.704 
L 129.329231 180.864 
L 126.554406 180.864 
L 123.77958 180.864 
L 121.004755 180.864 
L 118.22993 152.704 
L 115.455105 166.784 
L 112.68028 166.784 
L 109.905455 166.784 
L 107.130629 166.784 
L 104.355804 194.944 
L 101.580979 180.864 
L 98.806154 180.864 
L 96.031329 180.864 
L 93.256503 180.864 
L 90.481678 166.784 
L 87.706853 166.784 
L 84.932028 138.624 
L 82.157203 180.864 
L 79.382378 194.944 
L 76.607552 138.624 
L 73.832727 82.304 
z
" style="fill:#ff7f0e;"/>
   </g>
   <g id="PolyCollection_3">
    <path clip-path="url(#pf24523284e)" d="M 73.832727 68.224 
L 73.832727 82.304 
L 76.607552 138.624 
L 79.382378 194.944 
L 82.157203 180.864 
L 84.932028 138.624 
L 87.706853 166.784 
L 90.481678 166.784 
L 93.256503 180.864 
L 96.031329 180.864 
L 98.806154 180.864 
L 101.580979 180.864 
L 104.355804 194.944 
L 107.130629 166.784 
L 109.905455 166.784 
L 112.68028 166.784 
L 115.455105 166.784 
L 118.22993 152.704 
L 121.004755 180.864 
L 123.77958 180.864 
L 126.554406 180.864 
L 129.329231 180.864 
L 132.104056 152.704 
L 134.878881 152.704 
L 137.653706 152.704 
L 140.428531 152.704 
L 143.203357 152.704 
L 145.978182 180.864 
L 148.753007 180.864 
L 151.527832 180.864 
L 154.302657 180.864 
L 157.077483 180.864 
L 159.852308 180.864 
L 162.627133 180.864 
L 165.401958 180.864 
L 168.176783 180.864 
L 170.951608 180.864 
L 173.726434 180.864 
L 176.501259 180.864 
L 179.276084 138.624 
L 182.050909 110.464 
L 184.825734 110.464 
L 187.600559 110.464 
L 190.375385 110.464 
L 193.15021 110.464 
L 195.925035 110.464 
L 198.69986 110.464 
L 201.474685 110.464 
L 204.24951 110.464 
L 207.024336 68.224 
L 209.799161 68.224 
L 212.573986 68.224 
L 215.348811 68.224 
L 218.123636 68.224 
L 220.898462 68.224 
L 223.673287 68.224 
L 226.448112 68.224 
L 229.222937 68.224 
L 231.997762 68.224 
L 234.772587 68.224 
L 237.547413 68.224 
L 240.322238 68.224 
L 243.097063 68.224 
L 245.871888 209.024 
L 248.646713 194.944 
L 251.421538 209.024 
L 254.196364 194.944 
L 256.971189 180.864 
L 259.746014 166.784 
L 262.520839 180.864 
L 265.295664 194.944 
L 268.07049 180.864 
L 270.845315 166.784 
L 273.62014 180.864 
L 276.394965 166.784 
L 279.16979 152.704 
L 281.944615 166.784 
L 284.719441 180.864 
L 287.494266 166.784 
L 290.269091 152.704 
L 293.043916 166.784 
L 295.818741 152.704 
L 298.593566 180.864 
L 301.368392 166.784 
L 304.143217 152.704 
L 306.918042 138.624 
L 309.692867 124.544 
L 312.467692 138.624 
L 315.242517 152.704 
L 318.017343 166.784 
L 320.792168 152.704 
L 323.566993 166.784 
L 326.341818 180.864 
L 329.116643 166.784 
L 331.891469 180.864 
L 334.666294 166.784 
L 337.441119 180.864 
L 340.215944 194.944 
L 342.990769 180.864 
L 345.765594 166.784 
L 348.54042 180.864 
L 351.315245 209.024 
L 354.09007 194.944 
L 356.864895 209.024 
L 359.63972 194.944 
L 362.414545 180.864 
L 365.189371 194.944 
L 367.964196 180.864 
L 370.739021 194.944 
L 373.513846 180.864 
L 376.288671 307.584 
L 379.063497 307.584 
L 381.838322 307.584 
L 384.613147 307.584 
L 387.387972 307.584 
L 390.162797 307.584 
L 392.937622 307.584 
L 395.712448 307.584 
L 398.487273 307.584 
L 398.487273 307.584 
L 398.487273 307.584 
L 395.712448 307.584 
L 392.937622 307.584 
L 390.162797 307.584 
L 387.387972 307.584 
L 384.613147 307.584 
L 381.838322 307.584 
L 379.063497 307.584 
L 376.288671 307.584 
L 373.513846 180.864 
L 370.739021 194.944 
L 367.964196 180.864 
L 365.189371 194.944 
L 362.414545 180.864 
L 359.63972 194.944 
L 356.864895 209.024 
L 354.09007 194.944 
L 351.315245 209.024 
L 348.54042 180.864 
L 345.765594 166.784 
L 342.990769 180.864 
L 340.215944 194.944 
L 337.441119 180.864 
L 334.666294 166.784 
L 331.891469 180.864 
L 329.116643 166.784 
L 326.341818 180.864 
L 323.566993 166.784 
L 320.792168 152.704 
L 318.017343 166.784 
L 315.242517 152.704 
L 312.467692 138.624 
L 309.692867 124.544 
L 306.918042 138.624 
L 304.143217 152.704 
L 301.368392 166.784 
L 298.593566 180.864 
L 295.818741 152.704 
L 293.043916 166.784 
L 290.269091 152.704 
L 287.494266 166.784 
L 284.719441 180.864 
L 281.944615 166.784 
L 279.16979 152.704 
L 276.394965 166.784 
L 273.62014 180.864 
L 270.845315 166.784 
L 268.07049 180.864 
L 265.295664 194.944 
L 262.520839 180.864 
L 259.746014 166.784 
L 256.971189 180.864 
L 254.196364 194.944 
L 251.421538 209.024 
L 248.646713 194.944 
L 245.871888 209.024 
L 243.097063 68.224 
L 240.322238 68.224 
L 237.547413 68.224 
L 234.772587 68.224 
L 231.997762 68.224 
L 229.222937 68.224 
L 226.448112 68.224 
L 223.673287 68.224 
L 220.898462 68.224 
L 218.123636 68.224 
L 215.348811 68.224 
L 212.573986 68.224 
L 209.799161 68.224 
L 207.024336 68.224 
L 204.24951 68.224 
L 201.474685 68.224 
L 198.69986 68.224 
L 195.925035 68.224 
L 193.15021 68.224 
L 190.375385 68.224 
L 187.600559 68.224 
L 184.825734 68.224 
L 182.050909 68.224 
L 179.276084 96.384 
L 176.501259 138.624 
L 173.726434 138.624 
L 170.951608 138.624 
L 168.176783 138.624 
L 165.401958 138.624 
L 162.627133 138.624 
L 159.852308 138.624 
L 157.077483 138.624 
L 154.302657 138.624 
L 151.527832 138.624 
L 148.753007 138.624 
L 145.978182 138.624 
L 143.203357 110.464 
L 140.428531 110.464 
L 137.653706 110.464 
L 134.878881 110.464 
L 132.104056 110.464 
L 129.329231 138.624 
L 126.554406 138.624 
L 123.77958 138.624 
L 121.004755 138.624 
L 118.22993 110.464 
L 115.455105 124.544 
L 112.68028 124.544 
L 109.905455 124.544 
L 107.130629 124.544 
L 104.355804 152.704 
L 101.580979 138.624 
L 98.806154 138.624 
L 96.031329 138.624 
L 93.256503 138.624 
L 90.481678 124.544 
L 87.706853 124.544 
L 84.932028 96.384 
L 82.157203 138.624 
L 79.382378 152.704 
L 76.607552 96.384 
L 73.832727 68.224 
z
" style="fill:#2ca02c;"/>
   </g>
   <g id="PolyCollection_4">
    <path clip-path="url(#pf24523284e)" d="M 73.832727 68.224 
L 73.832727 68.224 
L 76.607552 96.384 
L 79.382378 152.704 
L 82.157203 138.624 
L 84.932028 96.384 
L 87.706853 124.544 
L 90.481678 124.544 
L 93.256503 138.624 
L 96.031329 138.624 
L 98.806154 138.624 
L 101.580979 138.624 
L 104.355804 152.704 
L 107.130629 124.544 
L 109.905455 124.544 
L 112.68028 124.544 
L 115.455105 124.544 
L 118.22993 110.464 
L 121.004755 138.624 
L 123.77958 138.624 
L 126.554406 138.624 
L 129.329231 138.624 
L 132.104056 110.464 
L 134.878881 110.464 
L 137.653706 110.464 
L 140.428531 110.464 
L 143.203357 110.464 
L 145.978182 138.624 
L 148.753007 138.624 
L 151.527832 138.624 
L 154.302657 138.624 
L 157.077483 138.624 
L 159.852308 138.624 
L 162.627133 138.624 
L 165.401958 138.624 
L 168.176783 138.624 
L 170.951608 138.624 
L 173.726434 138.624 
L 176.501259 138.624 
L 179.276084 96.384 
L 182.050909 68.224 
L 184.825734 68.224 
L 187.600559 68.224 
L 190.375385 68.224 
L 193.15021 68.224 
L 195.925035 68.224 
L 198.69986 68.224 
L 201.474685 68.224 
L 204.24951 68.224 
L 207.024336 68.224 
L 209.799161 68.224 
L 212.573986 68.224 
L 215.348811 68.224 
L 218.123636 68.224 
L 220.898462 68.224 
L 223.673287 68.224 
L 226.448112 68.224 
L 229.222937 68.224 
L 231.997762 68.224 
L 234.772587 68.224 
L 237.547413 68.224 
L 240.322238 68.224 
L 243.097063 68.224 
L 245.871888 209.024 
L 248.646713 194.944 
L 251.421538 209.024 
L 254.196364 194.944 
L 256.971189 180.864 
L 259.746014 166.784 
L 262.520839 180.864 
L 265.295664 194.944 
L 268.07049 180.864 
L 270.845315 166.784 
L 273.62014 180.864 
L 276.394965 166.784 
L 279.16979 152.704 
L 281.944615 166.784 
L 284.719441 180.864 
L 287.494266 166.784 
L 290.269091 152.704 
L 293.043916 166.784 
L 295.818741 152.704 
L 298.593566 180.864 
L 301.368392 166.784 
L 304.143217 152.704 
L 306.918042 138.624 
L 309.692867 124.544 
L 312.467692 138.624 
L 315.242517 152.704 
L 318.017343 166.784 
L 320.792168 152.704 
L 323.566993 166.784 
L 326.341818 180.864 
L 329.116643 166.784 
L 331.891469 180.864 
L 334.666294 166.784 
L 337.441119 180.864 
L 340.215944 194.944 
L 342.990769 180.864 
L 345.765594 166.784 
L 348.54042 180.864 
L 351.315245 209.024 
L 354.09007 194.944 
L 356.864895 209.024 
L 359.63972 194.944 
L 362.414545 180.864 
L 365.189371 194.944 
L 367.964196 180.864 
L 370.739021 194.944 
L 373.513846 180.864 
L 376.288671 307.584 
L 379.063497 307.584 
L 381.838322 307.584 
L 384.613147 307.584 
L 387.387972 307.584 
L 390.162797 307.584 
L 392.937622 307.584 
L 395.712448 307.584 
L 398.487273 307.584 
L 398.487273 307.584 
L 398.487273 307.584 
L 395.712448 307.584 
L 392.937622 307.584 
L 390.162797 307.584 
L 387.387972 307.584 
L 384.613147 307.584 
L 381.838322 307.584 
L 379.063497 307.584 
L 376.288671 307.584 
L 373.513846 180.864 
L 370.739021 194.944 
L 367.964196 180.864 
L 365.189371 194.944 
L 362.414545 180.864 
L 359.63972 194.944 
L 356.864895 209.024 
L 354.09007 194.944 
L 351.315245 209.024 
L 348.54042 180.864 
L 345.765594 166.784 
L 342.990769 180.864 
L 340.215944 194.944 
L 337.441119 180.864 
L 334.666294 166.784 
L 331.891469 180.864 
L 329.116643 166.784 
L 326.341818 180.864 
L 323.566993 166.784 
L 320.792168 152.704 
L 318.017343 166.784 
L 315.242517 152.704 
L 312.467692 138.624 
L 309.692867 124.544 
L 306.918042 138.624 
L 304.143217 152.704 
L 301.368392 166.784 
L 298.593566 180.864 
L 295.818741 152.704 
L 293.043916 166.784 
L 290.269091 152.704 
L 287.494266 166.784 
L 284.719441 180.864 
L 281.944615 166.784 
L 279.16979 152.704 
L 276.394965 166.784 
L 273.62014 180.864 
L 270.845315 166.784 
L 268.07049 180.864 
L 265.295664 194.944 
L 262.520839 180.864 
L 259.746014 166.784 
L 256.971189 180.864 
L 254.196364 194.944 
L 251.421538 209.024 
L 248.646713 194.944 
L 245.871888 209.024 
L 243.097063 68.224 
L 240.322238 68.224 
L 237.547413 68.224 
L 234.772587 68.224 
L 231.997762 68.224 
L 229.222937 68.224 
L 226.448112 68.224 
L 223.673287 68.224 
L 220.898462 68.224 
L 218.123636 68.224 
L 215.348811 68.224 
L 212.573986 68.224 
L 209.799161 68.224 
L 207.024336 68.224 
L 204.24951 68.224 
L 201.474685 68.224 
L 198.69986 68.224 
L 195.925035 68.224 
L 193.15021 68.224 
L 190.375385 68.224 
L 187.600559 68.224 
L 184.825734 68.224 
L 182.050909 68.224 
L 179.276084 54.144 
L 176.501259 82.304 
L 173.726434 82.304 
L 170.951608 82.304 
L 168.176783 82.304 
L 165.401958 82.304 
L 162.627133 82.304 
L 159.852308 82.304 
L 157.077483 82.304 
L 154.302657 82.304 
L 151.527832 82.304 
L 148.753007 82.304 
L 145.978182 82.304 
L 143.203357 54.144 
L 140.428531 68.224 
L 137.653706 68.224 
L 134.878881 68.224 
L 132.104056 68.224 
L 129.329231 82.304 
L 126.554406 82.304 
L 123.77958 82.304 
L 121.004755 82.304 
L 118.22993 54.144 
L 115.455105 54.144 
L 112.68028 54.144 
L 109.905455 68.224 
L 107.130629 54.144 
L 104.355804 68.224 
L 101.580979 54.144 
L 98.806154 68.224 
L 96.031329 68.224 
L 93.256503 68.224 
L 90.481678 54.144 
L 87.706853 68.224 
L 84.932028 54.144 
L 82.157203 82.304 
L 79.382378 68.224 
L 76.607552 54.144 
L 73.832727 68.224 
z
" style="fill:#d62728;"/>
   </g>
   <g id="PolyCollection_5">
    <path clip-path="url(#pf24523284e)" d="M 73.832727 68.224 
L 73.832727 68.224 
L 76.607552 54.144 
L 79.382378 68.224 
L 82.157203 82.304 
L 84.932028 54.144 
L 87.706853 68.224 
L 90.481678 54.144 
L 93.256503 68.224 
L 96.031329 68.224 
L 98.806154 68.224 
L 101.580979 54.144 
L 104.355804 68.224 
L 107.130629 54.144 
L 109.905455 68.224 
L 112.68028 54.144 
L 115.455105 54.144 
L 118.22993 54.144 
L 121.004755 82.304 
L 123.77958 82.304 
L 126.554406 82.304 
L 129.329231 82.304 
L 132.104056 68.224 
L 134.878881 68.224 
L 137.653706 68.224 
L 140.428531 68.224 
L 143.203357 54.144 
L 145.978182 82.304 
L 148.753007 82.304 
L 151.527832 82.304 
L 154.302657 82.304 
L 157.077483 82.304 
L 159.852308 82.304 
L 162.627133 82.304 
L 165.401958 82.304 
L 168.176783 82.304 
L 170.951608 82.304 
L 173.726434 82.304 
L 176.501259 82.304 
L 179.276084 54.144 
L 182.050909 68.224 
L 184.825734 68.224 
L 187.600559 68.224 
L 190.375385 68.224 
L 193.15021 68.224 
L 195.925035 68.224 
L 198.69986 68.224 
L 201.474685 68.224 
L 204.24951 68.224 
L 207.024336 68.224 
L 209.799161 68.224 
L 212.573986 68.224 
L 215.348811 68.224 
L 218.123636 68.224 
L 220.898462 68.224 
L 223.673287 68.224 
L 226.448112 68.224 
L 229.222937 68.224 
L 231.997762 68.224 
L 234.772587 68.224 
L 237.547413 68.224 
L 240.322238 68.224 
L 243.097063 68.224 
L 245.871888 209.024 
L 248.646713 194.944 
L 251.421538 209.024 
L 254.196364 194.944 
L 256.971189 180.864 
L 259.746014 166.784 
L 262.520839 180.864 
L 265.295664 194.944 
L 268.07049 180.864 
L 270.845315 166.784 
L 273.62014 180.864 
L 276.394965 166.784 
L 279.16979 152.704 
L 281.944615 166.784 
L 284.719441 180.864 
L 287.494266 166.784 
L 290.269091 152.704 
L 293.043916 166.784 
L 295.818741 152.704 
L 298.593566 180.864 
L 301.368392 166.784 
L 304.143217 152.704 
L 306.918042 138.624 
L 309.692867 124.544 
L 312.467692 138.624 
L 315.242517 152.704 
L 318.017343 166.784 
L 320.792168 152.704 
L 323.566993 166.784 
L 326.341818 180.864 
L 329.116643 166.784 
L 331.891469 180.864 
L 334.666294 166.784 
L 337.441119 180.864 
L 340.215944 194.944 
L 342.990769 180.864 
L 345.765594 166.784 
L 348.54042 180.864 
L 351.315245 209.024 
L 354.09007 194.944 
L 356.864895 209.024 
L 359.63972 194.944 
L 362.414545 180.864 
L 365.189371 194.944 
L 367.964196 180.864 
L 370.739021 194.944 
L 373.513846 180.864 
L 376.288671 307.584 
L 379.063497 307.584 
L 381.838322 307.584 
L 384.613147 307.584 
L 387.387972 307.584 
L 390.162797 307.584 
L 392.937622 307.584 
L 395.712448 307.584 
L 398.487273 307.584 
L 398.487273 68.224 
L 398.487273 68.224 
L 395.712448 68.224 
L 392.937622 68.224 
L 390.162797 68.224 
L 387.387972 68.224 
L 384.613147 68.224 
L 381.838322 68.224 
L 379.063497 68.224 
L 376.288671 68.224 
L 373.513846 68.224 
L 370.739021 68.224 
L 367.964196 68.224 
L 365.189371 68.224 
L 362.414545 68.224 
L 359.63972 68.224 
L 356.864895 68.224 
L 354.09007 68.224 
L 351.315245 68.224 
L 348.54042 68.224 
L 345.765594 68.224 
L 342.990769 68.224 
L 340.215944 68.224 
L 337.441119 68.224 
L 334.666294 68.224 
L 331.891469 68.224 
L 329.116643 68.224 
L 326.341818 68.224 
L 323.566993 68.224 
L 320.792168 68.224 
L 318.017343 68.224 
L 315.242517 68.224 
L 312.467692 68.224 
L 309.692867 68.224 
L 306.918042 68.224 
L 304.143217 68.224 
L 301.368392 68.224 
L 298.593566 68.224 
L 295.818741 68.224 
L 293.043916 68.224 
L 290.269091 68.224 
L 287.494266 68.224 
L 284.719441 68.224 
L 281.944615 68.224 
L 279.16979 68.224 
L 276.394965 68.224 
L 273.62014 68.224 
L 270.845315 68.224 
L 268.07049 68.224 
L 265.295664 68.224 
L 262.520839 68.224 
L 259.746014 68.224 
L 256.971189 68.224 
L 254.196364 68.224 
L 251.421538 68.224 
L 248.646713 68.224 
L 245.871888 68.224 
L 243.097063 68.224 
L 240.322238 68.224 
L 237.547413 68.224 
L 234.772587 68.224 
L 231.997762 68.224 
L 229.222937 68.224 
L 226.448112 68.224 
L 223.673287 68.224 
L 220.898462 68.224 
L 218.123636 68.224 
L 215.348811 68.224 
L 212.573986 68.224 
L 209.799161 68.224 
L 207.024336 68.224 
L 204.24951 68.224 
L 201.474685 68.224 
L 198.69986 68.224 
L 195.925035 68.224 
L 193.15021 68.224 
L 190.375385 68.224 
L 187.600559 68.224 
L 184.825734 68.224 
L 182.050909 68.224 
L 179.276084 54.144 
L 176.501259 82.304 
L 173.726434 82.304 
L 170.951608 82.304 
L 168.176783 82.304 
L 165.401958 82.304 
L 162.627133 82.304 
L 159.852308 82.304 
L 157.077483 82.304 
L 154.302657 82.304 
L 151.527832 82.304 
L 148.753007 82.304 
L 145.978182 82.304 
L 143.203357 54.144 
L 140.428531 68.224 
L 137.653706 68.224 
L 134.878881 68.224 
L 132.104056 68.224 
L 129.329231 82.304 
L 126.554406 82.304 
L 123.77958 82.304 
L 121.004755 82.304 
L 118.22993 54.144 
L 115.455105 54.144 
L 112.68028 54.144 
L 109.905455 68.224 
L 107.130629 54.144 
L 104.355804 68.224 
L 101.580979 54.144 
L 98.806154 68.224 
L 96.031329 68.224 
L 93.256503 68.224 
L 90.481678 54.144 
L 87.706853 68.224 
L 84.932028 54.144 
L 82.157203 82.304 
L 79.382378 68.224 
L 76.607552 54.144 
L 73.832727 68.224 
z
" style="fill:#9467bd;"/>
   </g>
   <g id="matplotlib.axis_1">
    <g id="xtick_1">
     <g id="line2d_1">
      <defs>
       <path d="M 0 0 
L 0 3.5 
" id="m25ff8965eb" style="stroke:#000000;stroke-width:0.8;"/>
      </defs>
      <g>
       <use style="stroke:#000000;stroke-width:0.8;" x="73.832727" xlink:href="#m25ff8965eb" y="307.584"/>
      </g>
     </g>
     <g id="text_1">
      <!-- 0 -->
      <defs>
       <path d="M 31.78125 66.40625 
Q 24.171875 66.40625 20.328125 58.90625 
Q 16.5 51.421875 16.5 36.375 
Q 16.5 21.390625 20.328125 13.890625 
Q 24.171875 6.390625 31.78125 6.390625 
Q 39.453125 6.390625 43.28125 13.890625 
Q 47.125 21.390625 47.125 36.375 
Q 47.125 51.421875 43.28125 58.90625 
Q 39.453125 66.40625 31.78125 66.40625 
z
M 31.78125 74.21875 
Q 44.046875 74.21875 50.515625 64.515625 
Q 56.984375 54.828125 56.984375 36.375 
Q 56.984375 17.96875 50.515625 8.265625 
Q 44.046875 -1.421875 31.78125 -1.421875 
Q 19.53125 -1.421875 13.0625 8.265625 
Q 6.59375 17.96875 6.59375 36.375 
Q 6.59375 54.828125 13.0625 64.515625 
Q 19.53125 74.21875 31.78125 74.21875 
z
" id="DejaVuSans-48"/>
      </defs>
      <g transform="translate(70.651477 322.182437)scale(0.1 -0.1)">
       <use xlink:href="#DejaVuSans-48"/>
      </g>
     </g>
    </g>
    <g id="xtick_2">
     <g id="line2d_2">
      <g>
       <use style="stroke:#000000;stroke-width:0.8;" x="129.329231" xlink:href="#m25ff8965eb" y="307.584"/>
      </g>
     </g>
     <g id="text_2">
      <!-- 20 -->
      <defs>
       <path d="M 19.1875 8.296875 
L 53.609375 8.296875 
L 53.609375 0 
L 7.328125 0 
L 7.328125 8.296875 
Q 12.9375 14.109375 22.625 23.890625 
Q 32.328125 33.6875 34.8125 36.53125 
Q 39.546875 41.84375 41.421875 45.53125 
Q 43.3125 49.21875 43.3125 52.78125 
Q 43.3125 58.59375 39.234375 62.25 
Q 35.15625 65.921875 28.609375 65.921875 
Q 23.96875 65.921875 18.8125 64.3125 
Q 13.671875 62.703125 7.8125 59.421875 
L 7.8125 69.390625 
Q 13.765625 71.78125 18.9375 73 
Q 24.125 74.21875 28.421875 74.21875 
Q 39.75 74.21875 46.484375 68.546875 
Q 53.21875 62.890625 53.21875 53.421875 
Q 53.21875 48.921875 51.53125 44.890625 
Q 49.859375 40.875 45.40625 35.40625 
Q 44.1875 33.984375 37.640625 27.21875 
Q 31.109375 20.453125 19.1875 8.296875 
z
" id="DejaVuSans-50"/>
      </defs>
      <g transform="translate(122.966731 322.182437)scale(0.1 -0.1)">
       <use xlink:href="#DejaVuSans-50"/>
       <use x="63.623047" xlink:href="#DejaVuSans-48"/>
      </g>
     </g>
    </g>
    <g id="xtick_3">
     <g id="line2d_3">
      <g>
       <use style="stroke:#000000;stroke-width:0.8;" x="184.825734" xlink:href="#m25ff8965eb" y="307.584"/>
      </g>
     </g>
     <g id="text_3">
      <!-- 40 -->
      <defs>
       <path d="M 37.796875 64.3125 
L 12.890625 25.390625 
L 37.796875 25.390625 
z
M 35.203125 72.90625 
L 47.609375 72.90625 
L 47.609375 25.390625 
L 58.015625 25.390625 
L 58.015625 17.1875 
L 47.609375 17.1875 
L 47.609375 0 
L 37.796875 0 
L 37.796875 17.1875 
L 4.890625 17.1875 
L 4.890625 26.703125 
z
" id="DejaVuSans-52"/>
      </defs>
      <g transform="translate(178.463234 322.182437)scale(0.1 -0.1)">
       <use xlink:href="#DejaVuSans-52"/>
       <use x="63.623047" xlink:href="#DejaVuSans-48"/>
      </g>
     </g>
    </g>
    <g id="xtick_4">
     <g id="line2d_4">
      <g>
       <use style="stroke:#000000;stroke-width:0.8;" x="240.322238" xlink:href="#m25ff8965eb" y="307.584"/>
      </g>
     </g>
     <g id="text_4">
      <!-- 60 -->
      <defs>
       <path d="M 33.015625 40.375 
Q 26.375 40.375 22.484375 35.828125 
Q 18.609375 31.296875 18.609375 23.390625 
Q 18.609375 15.53125 22.484375 10.953125 
Q 26.375 6.390625 33.015625 6.390625 
Q 39.65625 6.390625 43.53125 10.953125 
Q 47.40625 15.53125 47.40625 23.390625 
Q 47.40625 31.296875 43.53125 35.828125 
Q 39.65625 40.375 33.015625 40.375 
z
M 52.59375 71.296875 
L 52.59375 62.3125 
Q 48.875 64.0625 45.09375 64.984375 
Q 41.3125 65.921875 37.59375 65.921875 
Q 27.828125 65.921875 22.671875 59.328125 
Q 17.53125 52.734375 16.796875 39.40625 
Q 19.671875 43.65625 24.015625 45.921875 
Q 28.375 48.1875 33.59375 48.1875 
Q 44.578125 48.1875 50.953125 41.515625 
Q 57.328125 34.859375 57.328125 23.390625 
Q 57.328125 12.15625 50.6875 5.359375 
Q 44.046875 -1.421875 33.015625 -1.421875 
Q 20.359375 -1.421875 13.671875 8.265625 
Q 6.984375 17.96875 6.984375 36.375 
Q 6.984375 53.65625 15.1875 63.9375 
Q 23.390625 74.21875 37.203125 74.21875 
Q 40.921875 74.21875 44.703125 73.484375 
Q 48.484375 72.75 52.59375 71.296875 
z
" id="DejaVuSans-54"/>
      </defs>
      <g transform="translate(233.959738 322.182437)scale(0.1 -0.1)">
       <use xlink:href="#DejaVuSans-54"/>
       <use x="63.623047" xlink:href="#DejaVuSans-48"/>
      </g>
     </g>
    </g>
    <g id="xtick_5">
     <g id="line2d_5">
      <g>
       <use style="stroke:#000000;stroke-width:0.8;" x="295.818741" xlink:href="#m25ff8965eb" y="307.584"/>
      </g>
     </g>
     <g id="text_5">
      <!-- 80 -->
      <defs>
       <path d="M 31.78125 34.625 
Q 24.75 34.625 20.71875 30.859375 
Q 16.703125 27.09375 16.703125 20.515625 
Q 16.703125 13.921875 20.71875 10.15625 
Q 24.75 6.390625 31.78125 6.390625 
Q 38.8125 6.390625 42.859375 10.171875 
Q 46.921875 13.96875 46.921875 20.515625 
Q 46.921875 27.09375 42.890625 30.859375 
Q 38.875 34.625 31.78125 34.625 
z
M 21.921875 38.8125 
Q 15.578125 40.375 12.03125 44.71875 
Q 8.5 49.078125 8.5 55.328125 
Q 8.5 64.0625 14.71875 69.140625 
Q 20.953125 74.21875 31.78125 74.21875 
Q 42.671875 74.21875 48.875 69.140625 
Q 55.078125 64.0625 55.078125 55.328125 
Q 55.078125 49.078125 51.53125 44.71875 
Q 48 40.375 41.703125 38.8125 
Q 48.828125 37.15625 52.796875 32.3125 
Q 56.78125 27.484375 56.78125 20.515625 
Q 56.78125 9.90625 50.3125 4.234375 
Q 43.84375 -1.421875 31.78125 -1.421875 
Q 19.734375 -1.421875 13.25 4.234375 
Q 6.78125 9.90625 6.78125 20.515625 
Q 6.78125 27.484375 10.78125 32.3125 
Q 14.796875 37.15625 21.921875 38.8125 
z
M 18.3125 54.390625 
Q 18.3125 48.734375 21.84375 45.5625 
Q 25.390625 42.390625 31.78125 42.390625 
Q 38.140625 42.390625 41.71875 45.5625 
Q 45.3125 48.734375 45.3125 54.390625 
Q 45.3125 60.0625 41.71875 63.234375 
Q 38.140625 66.40625 31.78125 66.40625 
Q 25.390625 66.40625 21.84375 63.234375 
Q 18.3125 60.0625 18.3125 54.390625 
z
" id="DejaVuSans-56"/>
      </defs>
      <g transform="translate(289.456241 322.182437)scale(0.1 -0.1)">
       <use xlink:href="#DejaVuSans-56"/>
       <use x="63.623047" xlink:href="#DejaVuSans-48"/>
      </g>
     </g>
    </g>
    <g id="xtick_6">
     <g id="line2d_6">
      <g>
       <use style="stroke:#000000;stroke-width:0.8;" x="351.315245" xlink:href="#m25ff8965eb" y="307.584"/>
      </g>
     </g>
     <g id="text_6">
      <!-- 100 -->
      <defs>
       <path d="M 12.40625 8.296875 
L 28.515625 8.296875 
L 28.515625 63.921875 
L 10.984375 60.40625 
L 10.984375 69.390625 
L 28.421875 72.90625 
L 38.28125 72.90625 
L 38.28125 8.296875 
L 54.390625 8.296875 
L 54.390625 0 
L 12.40625 0 
z
" id="DejaVuSans-49"/>
      </defs>
      <g transform="translate(341.771495 322.182437)scale(0.1 -0.1)">
       <use xlink:href="#DejaVuSans-49"/>
       <use x="63.623047" xlink:href="#DejaVuSans-48"/>
       <use x="127.246094" xlink:href="#DejaVuSans-48"/>
      </g>
     </g>
    </g>
    <g id="xtick_7">
     <g id="line2d_7">
      <g>
       <use style="stroke:#000000;stroke-width:0.8;" x="406.811748" xlink:href="#m25ff8965eb" y="307.584"/>
      </g>
     </g>
     <g id="text_7">
      <!-- 120 -->
      <g transform="translate(397.267998 322.182437)scale(0.1 -0.1)">
       <use xlink:href="#DejaVuSans-49"/>
       <use x="63.623047" xlink:href="#DejaVuSans-50"/>
       <use x="127.246094" xlink:href="#DejaVuSans-48"/>
      </g>
     </g>
    </g>
    <g id="text_8">
     <!-- Generations -->
     <defs>
      <path d="M 59.515625 10.40625 
L 59.515625 29.984375 
L 43.40625 29.984375 
L 43.40625 38.09375 
L 69.28125 38.09375 
L 69.28125 6.78125 
Q 63.578125 2.734375 56.6875 0.65625 
Q 49.8125 -1.421875 42 -1.421875 
Q 24.90625 -1.421875 15.25 8.5625 
Q 5.609375 18.5625 5.609375 36.375 
Q 5.609375 54.25 15.25 64.234375 
Q 24.90625 74.21875 42 74.21875 
Q 49.125 74.21875 55.546875 72.453125 
Q 61.96875 70.703125 67.390625 67.28125 
L 67.390625 56.78125 
Q 61.921875 61.421875 55.765625 63.765625 
Q 49.609375 66.109375 42.828125 66.109375 
Q 29.4375 66.109375 22.71875 58.640625 
Q 16.015625 51.171875 16.015625 36.375 
Q 16.015625 21.625 22.71875 14.15625 
Q 29.4375 6.6875 42.828125 6.6875 
Q 48.046875 6.6875 52.140625 7.59375 
Q 56.25 8.5 59.515625 10.40625 
z
" id="DejaVuSans-71"/>
      <path d="M 56.203125 29.59375 
L 56.203125 25.203125 
L 14.890625 25.203125 
Q 15.484375 15.921875 20.484375 11.0625 
Q 25.484375 6.203125 34.421875 6.203125 
Q 39.59375 6.203125 44.453125 7.46875 
Q 49.3125 8.734375 54.109375 11.28125 
L 54.109375 2.78125 
Q 49.265625 0.734375 44.1875 -0.34375 
Q 39.109375 -1.421875 33.890625 -1.421875 
Q 20.796875 -1.421875 13.15625 6.1875 
Q 5.515625 13.8125 5.515625 26.8125 
Q 5.515625 40.234375 12.765625 48.109375 
Q 20.015625 56 32.328125 56 
Q 43.359375 56 49.78125 48.890625 
Q 56.203125 41.796875 56.203125 29.59375 
z
M 47.21875 32.234375 
Q 47.125 39.59375 43.09375 43.984375 
Q 39.0625 48.390625 32.421875 48.390625 
Q 24.90625 48.390625 20.390625 44.140625 
Q 15.875 39.890625 15.1875 32.171875 
z
" id="DejaVuSans-101"/>
      <path d="M 54.890625 33.015625 
L 54.890625 0 
L 45.90625 0 
L 45.90625 32.71875 
Q 45.90625 40.484375 42.875 44.328125 
Q 39.84375 48.1875 33.796875 48.1875 
Q 26.515625 48.1875 22.3125 43.546875 
Q 18.109375 38.921875 18.109375 30.90625 
L 18.109375 0 
L 9.078125 0 
L 9.078125 54.6875 
L 18.109375 54.6875 
L 18.109375 46.1875 
Q 21.34375 51.125 25.703125 53.5625 
Q 30.078125 56 35.796875 56 
Q 45.21875 56 50.046875 50.171875 
Q 54.890625 44.34375 54.890625 33.015625 
z
" id="DejaVuSans-110"/>
      <path d="M 41.109375 46.296875 
Q 39.59375 47.171875 37.8125 47.578125 
Q 36.03125 48 33.890625 48 
Q 26.265625 48 22.1875 43.046875 
Q 18.109375 38.09375 18.109375 28.8125 
L 18.109375 0 
L 9.078125 0 
L 9.078125 54.6875 
L 18.109375 54.6875 
L 18.109375 46.1875 
Q 20.953125 51.171875 25.484375 53.578125 
Q 30.03125 56 36.53125 56 
Q 37.453125 56 38.578125 55.875 
Q 39.703125 55.765625 41.0625 55.515625 
z
" id="DejaVuSans-114"/>
      <path d="M 34.28125 27.484375 
Q 23.390625 27.484375 19.1875 25 
Q 14.984375 22.515625 14.984375 16.5 
Q 14.984375 11.71875 18.140625 8.90625 
Q 21.296875 6.109375 26.703125 6.109375 
Q 34.1875 6.109375 38.703125 11.40625 
Q 43.21875 16.703125 43.21875 25.484375 
L 43.21875 27.484375 
z
M 52.203125 31.203125 
L 52.203125 0 
L 43.21875 0 
L 43.21875 8.296875 
Q 40.140625 3.328125 35.546875 0.953125 
Q 30.953125 -1.421875 24.3125 -1.421875 
Q 15.921875 -1.421875 10.953125 3.296875 
Q 6 8.015625 6 15.921875 
Q 6 25.140625 12.171875 29.828125 
Q 18.359375 34.515625 30.609375 34.515625 
L 43.21875 34.515625 
L 43.21875 35.40625 
Q 43.21875 41.609375 39.140625 45 
Q 35.0625 48.390625 27.6875 48.390625 
Q 23 48.390625 18.546875 47.265625 
Q 14.109375 46.140625 10.015625 43.890625 
L 10.015625 52.203125 
Q 14.9375 54.109375 19.578125 55.046875 
Q 24.21875 56 28.609375 56 
Q 40.484375 56 46.34375 49.84375 
Q 52.203125 43.703125 52.203125 31.203125 
z
" id="DejaVuSans-97"/>
      <path d="M 18.3125 70.21875 
L 18.3125 54.6875 
L 36.8125 54.6875 
L 36.8125 47.703125 
L 18.3125 47.703125 
L 18.3125 18.015625 
Q 18.3125 11.328125 20.140625 9.421875 
Q 21.96875 7.515625 27.59375 7.515625 
L 36.8125 7.515625 
L 36.8125 0 
L 27.59375 0 
Q 17.1875 0 13.234375 3.875 
Q 9.28125 7.765625 9.28125 18.015625 
L 9.28125 47.703125 
L 2.6875 47.703125 
L 2.6875 54.6875 
L 9.28125 54.6875 
L 9.28125 70.21875 
z
" id="DejaVuSans-116"/>
      <path d="M 9.421875 54.6875 
L 18.40625 54.6875 
L 18.40625 0 
L 9.421875 0 
z
M 9.421875 75.984375 
L 18.40625 75.984375 
L 18.40625 64.59375 
L 9.421875 64.59375 
z
" id="DejaVuSans-105"/>
      <path d="M 30.609375 48.390625 
Q 23.390625 48.390625 19.1875 42.75 
Q 14.984375 37.109375 14.984375 27.296875 
Q 14.984375 17.484375 19.15625 11.84375 
Q 23.34375 6.203125 30.609375 6.203125 
Q 37.796875 6.203125 41.984375 11.859375 
Q 46.1875 17.53125 46.1875 27.296875 
Q 46.1875 37.015625 41.984375 42.703125 
Q 37.796875 48.390625 30.609375 48.390625 
z
M 30.609375 56 
Q 42.328125 56 49.015625 48.375 
Q 55.71875 40.765625 55.71875 27.296875 
Q 55.71875 13.875 49.015625 6.21875 
Q 42.328125 -1.421875 30.609375 -1.421875 
Q 18.84375 -1.421875 12.171875 6.21875 
Q 5.515625 13.875 5.515625 27.296875 
Q 5.515625 40.765625 12.171875 48.375 
Q 18.84375 56 30.609375 56 
z
" id="DejaVuSans-111"/>
      <path d="M 44.28125 53.078125 
L 44.28125 44.578125 
Q 40.484375 46.53125 36.375 47.5 
Q 32.28125 48.484375 27.875 48.484375 
Q 21.1875 48.484375 17.84375 46.4375 
Q 14.5 44.390625 14.5 40.28125 
Q 14.5 37.15625 16.890625 35.375 
Q 19.28125 33.59375 26.515625 31.984375 
L 29.59375 31.296875 
Q 39.15625 29.25 43.1875 25.515625 
Q 47.21875 21.78125 47.21875 15.09375 
Q 47.21875 7.46875 41.1875 3.015625 
Q 35.15625 -1.421875 24.609375 -1.421875 
Q 20.21875 -1.421875 15.453125 -0.5625 
Q 10.6875 0.296875 5.421875 2 
L 5.421875 11.28125 
Q 10.40625 8.6875 15.234375 7.390625 
Q 20.0625 6.109375 24.8125 6.109375 
Q 31.15625 6.109375 34.5625 8.28125 
Q 37.984375 10.453125 37.984375 14.40625 
Q 37.984375 18.0625 35.515625 20.015625 
Q 33.0625 21.96875 24.703125 23.78125 
L 21.578125 24.515625 
Q 13.234375 26.265625 9.515625 29.90625 
Q 5.8125 33.546875 5.8125 39.890625 
Q 5.8125 47.609375 11.28125 51.796875 
Q 16.75 56 26.8125 56 
Q 31.78125 56 36.171875 55.265625 
Q 40.578125 54.546875 44.28125 53.078125 
z
" id="DejaVuSans-115"/>
     </defs>
     <g transform="translate(205.662344 335.860562)scale(0.1 -0.1)">
      <use xlink:href="#DejaVuSans-71"/>
      <use x="77.490234" xlink:href="#DejaVuSans-101"/>
      <use x="139.013672" xlink:href="#DejaVuSans-110"/>
      <use x="202.392578" xlink:href="#DejaVuSans-101"/>
      <use x="263.916016" xlink:href="#DejaVuSans-114"/>
      <use x="305.029297" xlink:href="#DejaVuSans-97"/>
      <use x="366.308594" xlink:href="#DejaVuSans-116"/>
      <use x="405.517578" xlink:href="#DejaVuSans-105"/>
      <use x="433.300781" xlink:href="#DejaVuSans-111"/>
      <use x="494.482422" xlink:href="#DejaVuSans-110"/>
      <use x="557.861328" xlink:href="#DejaVuSans-115"/>
     </g>
    </g>
   </g>
   <g id="matplotlib.axis_2">
    <g id="ytick_1">
     <g id="line2d_8">
      <defs>
       <path d="M 0 0 
L -3.5 0 
" id="m40408bbb85" style="stroke:#000000;stroke-width:0.8;"/>
      </defs>
      <g>
       <use style="stroke:#000000;stroke-width:0.8;" x="57.6" xlink:href="#m40408bbb85" y="307.584"/>
      </g>
     </g>
     <g id="text_9">
      <!-- 0.0 -->
      <defs>
       <path d="M 10.6875 12.40625 
L 21 12.40625 
L 21 0 
L 10.6875 0 
z
" id="DejaVuSans-46"/>
      </defs>
      <g transform="translate(34.696875 311.383219)scale(0.1 -0.1)">
       <use xlink:href="#DejaVuSans-48"/>
       <use x="63.623047" xlink:href="#DejaVuSans-46"/>
       <use x="95.410156" xlink:href="#DejaVuSans-48"/>
      </g>
     </g>
    </g>
    <g id="ytick_2">
     <g id="line2d_9">
      <g>
       <use style="stroke:#000000;stroke-width:0.8;" x="57.6" xlink:href="#m40408bbb85" y="272.384"/>
      </g>
     </g>
     <g id="text_10">
      <!-- 2.5 -->
      <defs>
       <path d="M 10.796875 72.90625 
L 49.515625 72.90625 
L 49.515625 64.59375 
L 19.828125 64.59375 
L 19.828125 46.734375 
Q 21.96875 47.46875 24.109375 47.828125 
Q 26.265625 48.1875 28.421875 48.1875 
Q 40.625 48.1875 47.75 41.5 
Q 54.890625 34.8125 54.890625 23.390625 
Q 54.890625 11.625 47.5625 5.09375 
Q 40.234375 -1.421875 26.90625 -1.421875 
Q 22.3125 -1.421875 17.546875 -0.640625 
Q 12.796875 0.140625 7.71875 1.703125 
L 7.71875 11.625 
Q 12.109375 9.234375 16.796875 8.0625 
Q 21.484375 6.890625 26.703125 6.890625 
Q 35.15625 6.890625 40.078125 11.328125 
Q 45.015625 15.765625 45.015625 23.390625 
Q 45.015625 31 40.078125 35.4375 
Q 35.15625 39.890625 26.703125 39.890625 
Q 22.75 39.890625 18.8125 39.015625 
Q 14.890625 38.140625 10.796875 36.28125 
z
" id="DejaVuSans-53"/>
      </defs>
      <g transform="translate(34.696875 276.183219)scale(0.1 -0.1)">
       <use xlink:href="#DejaVuSans-50"/>
       <use x="63.623047" xlink:href="#DejaVuSans-46"/>
       <use x="95.410156" xlink:href="#DejaVuSans-53"/>
      </g>
     </g>
    </g>
    <g id="ytick_3">
     <g id="line2d_10">
      <g>
       <use style="stroke:#000000;stroke-width:0.8;" x="57.6" xlink:href="#m40408bbb85" y="237.184"/>
      </g>
     </g>
     <g id="text_11">
      <!-- 5.0 -->
      <g transform="translate(34.696875 240.983219)scale(0.1 -0.1)">
       <use xlink:href="#DejaVuSans-53"/>
       <use x="63.623047" xlink:href="#DejaVuSans-46"/>
       <use x="95.410156" xlink:href="#DejaVuSans-48"/>
      </g>
     </g>
    </g>
    <g id="ytick_4">
     <g id="line2d_11">
      <g>
       <use style="stroke:#000000;stroke-width:0.8;" x="57.6" xlink:href="#m40408bbb85" y="201.984"/>
      </g>
     </g>
     <g id="text_12">
      <!-- 7.5 -->
      <defs>
       <path d="M 8.203125 72.90625 
L 55.078125 72.90625 
L 55.078125 68.703125 
L 28.609375 0 
L 18.3125 0 
L 43.21875 64.59375 
L 8.203125 64.59375 
z
" id="DejaVuSans-55"/>
      </defs>
      <g transform="translate(34.696875 205.783219)scale(0.1 -0.1)">
       <use xlink:href="#DejaVuSans-55"/>
       <use x="63.623047" xlink:href="#DejaVuSans-46"/>
       <use x="95.410156" xlink:href="#DejaVuSans-53"/>
      </g>
     </g>
    </g>
    <g id="ytick_5">
     <g id="line2d_12">
      <g>
       <use style="stroke:#000000;stroke-width:0.8;" x="57.6" xlink:href="#m40408bbb85" y="166.784"/>
      </g>
     </g>
     <g id="text_13">
      <!-- 10.0 -->
      <g transform="translate(28.334375 170.583219)scale(0.1 -0.1)">
       <use xlink:href="#DejaVuSans-49"/>
       <use x="63.623047" xlink:href="#DejaVuSans-48"/>
       <use x="127.246094" xlink:href="#DejaVuSans-46"/>
       <use x="159.033203" xlink:href="#DejaVuSans-48"/>
      </g>
     </g>
    </g>
    <g id="ytick_6">
     <g id="line2d_13">
      <g>
       <use style="stroke:#000000;stroke-width:0.8;" x="57.6" xlink:href="#m40408bbb85" y="131.584"/>
      </g>
     </g>
     <g id="text_14">
      <!-- 12.5 -->
      <g transform="translate(28.334375 135.383219)scale(0.1 -0.1)">
       <use xlink:href="#DejaVuSans-49"/>
       <use x="63.623047" xlink:href="#DejaVuSans-50"/>
       <use x="127.246094" xlink:href="#DejaVuSans-46"/>
       <use x="159.033203" xlink:href="#DejaVuSans-53"/>
      </g>
     </g>
    </g>
    <g id="ytick_7">
     <g id="line2d_14">
      <g>
       <use style="stroke:#000000;stroke-width:0.8;" x="57.6" xlink:href="#m40408bbb85" y="96.384"/>
      </g>
     </g>
     <g id="text_15">
      <!-- 15.0 -->
      <g transform="translate(28.334375 100.183219)scale(0.1 -0.1)">
       <use xlink:href="#DejaVuSans-49"/>
       <use x="63.623047" xlink:href="#DejaVuSans-53"/>
       <use x="127.246094" xlink:href="#DejaVuSans-46"/>
       <use x="159.033203" xlink:href="#DejaVuSans-48"/>
      </g>
     </g>
    </g>
    <g id="ytick_8">
     <g id="line2d_15">
      <g>
       <use style="stroke:#000000;stroke-width:0.8;" x="57.6" xlink:href="#m40408bbb85" y="61.184"/>
      </g>
     </g>
     <g id="text_16">
      <!-- 17.5 -->
      <g transform="translate(28.334375 64.983219)scale(0.1 -0.1)">
       <use xlink:href="#DejaVuSans-49"/>
       <use x="63.623047" xlink:href="#DejaVuSans-55"/>
       <use x="127.246094" xlink:href="#DejaVuSans-46"/>
       <use x="159.033203" xlink:href="#DejaVuSans-53"/>
      </g>
     </g>
    </g>
    <g id="text_17">
     <!-- Size per Species -->
     <defs>
      <path d="M 53.515625 70.515625 
L 53.515625 60.890625 
Q 47.90625 63.578125 42.921875 64.890625 
Q 37.9375 66.21875 33.296875 66.21875 
Q 25.25 66.21875 20.875 63.09375 
Q 16.5 59.96875 16.5 54.203125 
Q 16.5 49.359375 19.40625 46.890625 
Q 22.3125 44.4375 30.421875 42.921875 
L 36.375 41.703125 
Q 47.40625 39.59375 52.65625 34.296875 
Q 57.90625 29 57.90625 20.125 
Q 57.90625 9.515625 50.796875 4.046875 
Q 43.703125 -1.421875 29.984375 -1.421875 
Q 24.8125 -1.421875 18.96875 -0.25 
Q 13.140625 0.921875 6.890625 3.21875 
L 6.890625 13.375 
Q 12.890625 10.015625 18.65625 8.296875 
Q 24.421875 6.59375 29.984375 6.59375 
Q 38.421875 6.59375 43.015625 9.90625 
Q 47.609375 13.234375 47.609375 19.390625 
Q 47.609375 24.75 44.3125 27.78125 
Q 41.015625 30.8125 33.5 32.328125 
L 27.484375 33.5 
Q 16.453125 35.6875 11.515625 40.375 
Q 6.59375 45.0625 6.59375 53.421875 
Q 6.59375 63.09375 13.40625 68.65625 
Q 20.21875 74.21875 32.171875 74.21875 
Q 37.3125 74.21875 42.625 73.28125 
Q 47.953125 72.359375 53.515625 70.515625 
z
" id="DejaVuSans-83"/>
      <path d="M 5.515625 54.6875 
L 48.1875 54.6875 
L 48.1875 46.484375 
L 14.40625 7.171875 
L 48.1875 7.171875 
L 48.1875 0 
L 4.296875 0 
L 4.296875 8.203125 
L 38.09375 47.515625 
L 5.515625 47.515625 
z
" id="DejaVuSans-122"/>
      <path id="DejaVuSans-32"/>
      <path d="M 18.109375 8.203125 
L 18.109375 -20.796875 
L 9.078125 -20.796875 
L 9.078125 54.6875 
L 18.109375 54.6875 
L 18.109375 46.390625 
Q 20.953125 51.265625 25.265625 53.625 
Q 29.59375 56 35.59375 56 
Q 45.5625 56 51.78125 48.09375 
Q 58.015625 40.1875 58.015625 27.296875 
Q 58.015625 14.40625 51.78125 6.484375 
Q 45.5625 -1.421875 35.59375 -1.421875 
Q 29.59375 -1.421875 25.265625 0.953125 
Q 20.953125 3.328125 18.109375 8.203125 
z
M 48.6875 27.296875 
Q 48.6875 37.203125 44.609375 42.84375 
Q 40.53125 48.484375 33.40625 48.484375 
Q 26.265625 48.484375 22.1875 42.84375 
Q 18.109375 37.203125 18.109375 27.296875 
Q 18.109375 17.390625 22.1875 11.75 
Q 26.265625 6.109375 33.40625 6.109375 
Q 40.53125 6.109375 44.609375 11.75 
Q 48.6875 17.390625 48.6875 27.296875 
z
" id="DejaVuSans-112"/>
      <path d="M 48.78125 52.59375 
L 48.78125 44.1875 
Q 44.96875 46.296875 41.140625 47.34375 
Q 37.3125 48.390625 33.40625 48.390625 
Q 24.65625 48.390625 19.8125 42.84375 
Q 14.984375 37.3125 14.984375 27.296875 
Q 14.984375 17.28125 19.8125 11.734375 
Q 24.65625 6.203125 33.40625 6.203125 
Q 37.3125 6.203125 41.140625 7.25 
Q 44.96875 8.296875 48.78125 10.40625 
L 48.78125 2.09375 
Q 45.015625 0.34375 40.984375 -0.53125 
Q 36.96875 -1.421875 32.421875 -1.421875 
Q 20.0625 -1.421875 12.78125 6.34375 
Q 5.515625 14.109375 5.515625 27.296875 
Q 5.515625 40.671875 12.859375 48.328125 
Q 20.21875 56 33.015625 56 
Q 37.15625 56 41.109375 55.140625 
Q 45.0625 54.296875 48.78125 52.59375 
z
" id="DejaVuSans-99"/>
     </defs>
     <g transform="translate(22.254687 215.520969)rotate(-90)scale(0.1 -0.1)">
      <use xlink:href="#DejaVuSans-83"/>
      <use x="63.476562" xlink:href="#DejaVuSans-105"/>
      <use x="91.259766" xlink:href="#DejaVuSans-122"/>
      <use x="143.75" xlink:href="#DejaVuSans-101"/>
      <use x="205.273438" xlink:href="#DejaVuSans-32"/>
      <use x="237.060547" xlink:href="#DejaVuSans-112"/>
      <use x="300.537109" xlink:href="#DejaVuSans-101"/>
      <use x="362.060547" xlink:href="#DejaVuSans-114"/>
      <use x="403.173828" xlink:href="#DejaVuSans-32"/>
      <use x="434.960938" xlink:href="#DejaVuSans-83"/>
      <use x="498.4375" xlink:href="#DejaVuSans-112"/>
      <use x="561.914062" xlink:href="#DejaVuSans-101"/>
      <use x="623.4375" xlink:href="#DejaVuSans-99"/>
      <use x="678.417969" xlink:href="#DejaVuSans-105"/>
      <use x="706.201172" xlink:href="#DejaVuSans-101"/>
      <use x="767.724609" xlink:href="#DejaVuSans-115"/>
     </g>
    </g>
   </g>
   <g id="patch_3">
    <path d="M 57.6 307.584 
L 57.6 41.472 
" style="fill:none;stroke:#000000;stroke-linecap:square;stroke-linejoin:miter;stroke-width:0.8;"/>
   </g>
   <g id="patch_4">
    <path d="M 414.72 307.584 
L 414.72 41.472 
" style="fill:none;stroke:#000000;stroke-linecap:square;stroke-linejoin:miter;stroke-width:0.8;"/>
   </g>
   <g id="patch_5">
    <path d="M 57.6 307.584 
L 414.72 307.584 
" style="fill:none;stroke:#000000;stroke-linecap:square;stroke-linejoin:miter;stroke-width:0.8;"/>
   </g>
   <g id="patch_6">
    <path d="M 57.6 41.472 
L 414.72 41.472 
" style="fill:none;stroke:#000000;stroke-linecap:square;stroke-linejoin:miter;stroke-width:0.8;"/>
   </g>
   <g id="text_18">
    <!-- Speciation -->
    <g transform="translate(204.714375 35.472)scale(0.12 -0.12)">
     <use xlink:href="#DejaVuSans-83"/>
     <use x="63.476562" xlink:href="#DejaVuSans-112"/>
     <use x="126.953125" xlink:href="#DejaVuSans-101"/>
     <use x="188.476562" xlink:href="#DejaVuSans-99"/>
     <use x="243.457031" xlink:href="#DejaVuSans-105"/>
     <use x="271.240234" xlink:href="#DejaVuSans-97"/>
     <use x="332.519531" xlink:href="#DejaVuSans-116"/>
     <use x="371.728516" xlink:href="#DejaVuSans-105"/>
     <use x="399.511719" xlink:href="#DejaVuSans-111"/>
     <use x="460.693359" xlink:href="#DejaVuSans-110"/>
    </g>
   </g>
  </g>
 </g>
 <defs>
  <clipPath id="pf24523284e">
   <rect height="266.112" width="357.12" x="57.6" y="41.472"/>
  </clipPath>
 </defs>
</svg>
